<svg xmlns="http://www.w3.org/2000/svg" width="111" height="111" fill="none" viewBox="0 0 111 111"><mask id="c" fill="#fff"><path d="M55.722 13.875a7.24 7.24 0 0 0-4.847 6.794c.01 2.937 1.924 5.906 4.625 7.076l6.475 2.128c2.391.81 4.69 2.618 5.504 5.041l1.24 4.398H61.28a3.469 3.469 0 0 0 0 6.938H74.38q.846.217 1.748.227c.68.009 1.356-.102 2.003-.296.394-.075.77-.223 1.11-.435l.032-.01a5.9 5.9 0 0 0-.832 3.053c-.019 2.498 1.674 4.847 4.024 5.689 1.739.555 4.657.837 5.319 2.867 1.11 3.515 2.317 7.632 6.844 7.632.981 0 1.8-.204 2.498-.537v17.654a15.03 15.03 0 0 1-15.031 15.031H28.906a15.03 15.03 0 0 1-15.031-15.031V28.906a15.03 15.03 0 0 1 15.031-15.031zm-5.864 47.268a3.47 3.47 0 0 0-4.903 0l-6.799 6.798-2.173-2.174a3.47 3.47 0 1 0-4.903 4.903l4.625 4.625a3.47 3.47 0 0 0 4.903 0l9.25-9.25a3.47 3.47 0 0 0 0-4.903M61.28 64.75a3.469 3.469 0 0 0 0 6.938H77.47a3.469 3.469 0 0 0 0-6.938zM94.74 37a1.39 1.39 0 0 1 1.318.93l1.156 3.542a7.3 7.3 0 0 0 4.62 4.616l3.538 1.147.07.019a1.41 1.41 0 0 1 .862.897c.066.205.083.423.05.637a1.4 1.4 0 0 1-.237.593 1.4 1.4 0 0 1-.675.509l-3.538 1.147a7.3 7.3 0 0 0-4.62 4.616l-1.152 3.542a1.4 1.4 0 0 1-2.637 0l-1.156-3.542a7.31 7.31 0 0 0-4.616-4.635l-3.538-1.147a1.407 1.407 0 0 1-.675-2.127c.167-.236.403-.414.675-.509l3.538-1.147a7.3 7.3 0 0 0 4.551-4.616l1.152-3.547A1.39 1.39 0 0 1 94.739 37m-44.881-1.295a3.47 3.47 0 0 0-4.903 0l-6.799 6.799-2.173-2.174a3.47 3.47 0 1 0-4.903 4.903l4.625 4.625a3.47 3.47 0 0 0 4.903 0l9.25-9.25a3.47 3.47 0 0 0 0-4.903M76.188 0a2.52 2.52 0 0 1 2.368 1.679l2.076 6.364a13.14 13.14 0 0 0 8.311 8.311l6.374 2.067.13.033a2.54 2.54 0 0 1 1.678 2.377 2.5 2.5 0 0 1-1.679 2.373l-6.373 2.067a13.13 13.13 0 0 0-8.32 8.307l-2.068 6.363-.06.158a2.521 2.521 0 0 1-4.69-.157l-2.062-6.364a13.14 13.14 0 0 0-8.316-8.344l-6.373-2.067a2.54 2.54 0 0 1-1.684-2.373 2.5 2.5 0 0 1 1.679-2.373l6.373-2.067A13.14 13.14 0 0 0 71.688 8.2l.055-.157 2.067-6.364A2.54 2.54 0 0 1 76.188 0"/></mask><path fill="url(#a)" stroke="url(#b)" stroke-width="2" d="M55.722 13.875a7.24 7.24 0 0 0-4.847 6.794c.01 2.937 1.924 5.906 4.625 7.076l6.475 2.128c2.391.81 4.69 2.618 5.504 5.041l1.24 4.398H61.28a3.469 3.469 0 0 0 0 6.938H74.38q.846.217 1.748.227c.68.009 1.356-.102 2.003-.296.394-.075.77-.223 1.11-.435l.032-.01a5.9 5.9 0 0 0-.832 3.053c-.019 2.498 1.674 4.847 4.024 5.689 1.739.555 4.657.837 5.319 2.867 1.11 3.515 2.317 7.632 6.844 7.632.981 0 1.8-.204 2.498-.537v17.654a15.03 15.03 0 0 1-15.031 15.031H28.906a15.03 15.03 0 0 1-15.031-15.031V28.906a15.03 15.03 0 0 1 15.031-15.031zm-5.864 47.268a3.47 3.47 0 0 0-4.903 0l-6.799 6.798-2.173-2.174a3.47 3.47 0 1 0-4.903 4.903l4.625 4.625a3.47 3.47 0 0 0 4.903 0l9.25-9.25a3.47 3.47 0 0 0 0-4.903ZM61.28 64.75a3.469 3.469 0 0 0 0 6.938H77.47a3.469 3.469 0 0 0 0-6.938zM94.74 37a1.39 1.39 0 0 1 1.318.93l1.156 3.542a7.3 7.3 0 0 0 4.62 4.616l3.538 1.147.07.019a1.41 1.41 0 0 1 .862.897c.066.205.083.423.05.637a1.4 1.4 0 0 1-.237.593 1.4 1.4 0 0 1-.675.509l-3.538 1.147a7.3 7.3 0 0 0-4.62 4.616l-1.152 3.542a1.4 1.4 0 0 1-2.637 0l-1.156-3.542a7.31 7.31 0 0 0-4.616-4.635l-3.538-1.147a1.407 1.407 0 0 1-.675-2.127c.167-.236.403-.414.675-.509l3.538-1.147a7.3 7.3 0 0 0 4.551-4.616l1.152-3.547A1.39 1.39 0 0 1 94.739 37Zm-44.881-1.295a3.47 3.47 0 0 0-4.903 0l-6.799 6.799-2.173-2.174a3.47 3.47 0 1 0-4.903 4.903l4.625 4.625a3.47 3.47 0 0 0 4.903 0l9.25-9.25a3.47 3.47 0 0 0 0-4.903ZM76.188 0a2.52 2.52 0 0 1 2.368 1.679l2.076 6.364a13.14 13.14 0 0 0 8.311 8.311l6.374 2.067.13.033a2.54 2.54 0 0 1 1.678 2.377 2.5 2.5 0 0 1-1.679 2.373l-6.373 2.067a13.13 13.13 0 0 0-8.32 8.307l-2.068 6.363-.06.158a2.521 2.521 0 0 1-4.69-.157l-2.062-6.364a13.14 13.14 0 0 0-8.316-8.344l-6.373-2.067a2.54 2.54 0 0 1-1.684-2.373 2.5 2.5 0 0 1 1.679-2.373l6.373-2.067A13.14 13.14 0 0 0 71.688 8.2l.055-.157 2.067-6.364A2.54 2.54 0 0 1 76.188 0Z" mask="url(#c)"/><defs><linearGradient id="a" x1="96.287" x2="40.044" y1="-12.691" y2="103.431" gradientUnits="userSpaceOnUse"><stop stop-color="#008745" stop-opacity="0"/><stop offset="1" stop-color="#008745"/></linearGradient><linearGradient id="b" x1="22.791" x2="78.527" y1="90.417" y2="-6.769" gradientUnits="userSpaceOnUse"><stop stop-color="#00FF82"/><stop offset="1" stop-color="#008745" stop-opacity="0"/></linearGradient></defs></svg>