<svg xmlns="http://www.w3.org/2000/svg" width="648" height="309" fill="none" viewBox="0 0 648 309"><path fill="url(#a)" d="M12.832.942h625.033a19 19 0 0 1 3.77.362c1.195.24 2.282.593 3.198 1.038s1.642.975 2.137 1.557.751 1.207.751 1.837v303.035H3V5.736c0-.63.254-1.253.748-1.834.495-.582 1.219-1.11 2.132-1.556s1.997-.798 3.19-1.039a19 19 0 0 1 3.762-.365"/><path fill="#01723B" d="M113.461 103.828c.005 1.612-.971 3.189-2.805 4.53s-4.444 2.388-7.497 3.006-6.416.78-9.659.466-6.222-1.09-8.56-2.23-3.93-2.592-4.574-4.174c-.644-1.581-.311-3.22.957-4.709 1.267-1.489 3.412-2.76 6.164-3.655 2.75-.894 5.984-1.37 9.29-1.368 4.424.003 8.663.861 11.791 2.386 3.127 1.525 4.887 3.592 4.893 5.748"/><path fill="#008745" d="M647.722 35.306 564.28 74.372a386 386 0 0 0-36.709.234 8 8 0 0 1-1.644-.12 5.8 5.8 0 0 1-1.409-.43C508.892 68.078 494.324 24.533 488.002.94h-4.568c5.025 18.754 19.713 67.759 38.272 74.862.878.371 1.902.652 3.009.826 1.108.173 2.275.235 3.433.182a355 355 0 0 1 31.781-.399l-67.528 31.647-95.005-34.319c-4.737-1.712-10.594-2.52-16.469-2.274-5.874.246-11.362 1.53-15.431 3.61-10.217 5.216-17.958 9.436-23.054 12.542-6.732 4.09-17.357 10.549-29.209 17.581l-35.314-13.866c20.963-13.479 39.089-25.13 49.786-31.13C349.461 48 399.824 17.22 426.268.986h-5.818c-26.9 16.526-75.052 45.923-96.158 57.76-10.794 6.049-28.848 17.711-49.907 31.214l-48.079-18.883c.27-.223.366-.486.27-.741s-.376-.485-.791-.647-.935-.246-1.466-.237c-.532.01-1.038.112-1.427.29L175.678 51.21a3.2 3.2 0 0 0-.796-.247 4.5 4.5 0 0 0-1.846.05c-.283.072-.533.17-.733.291s-.347.26-.43.41a.57.57 0 0 0-.052.46c.048.154.162.3.334.431.171.13.397.243.662.328l47.214 18.531c-6.755 4.231-25.722 16.163-39.256 25.071L54.23 48.973a4.3 4.3 0 0 0-1.642-.178c-.573.045-1.09.194-1.445.419s-.522.505-.467.787.329.543.765.73L178.082 98.33c-2.789 1.852-5.265 3.516-7.212 4.911-15.001 10.549-35.074 20.617-70.292 15.12-36.06-5.626-40.867-18.555-40.867-19.094-.091-.262-.362-.502-.77-.68L26.055 84.816c2.404-8.556 5.217-20.57 8.294-37.507 3.27-17.921 5.841-35.82 7.212-46.38h-4.448c-3.63 26.959-9.28 60.703-15.12 82.176l-17.237-7.15v2.93L21.247 85.8c-3.005 10.549-6.058 17.581-8.87 18.554a80 80 0 0 0-7.621 2.11v2.696a83 83 0 0 1 9.471-2.778c1.948-.422 5.674-1.172 11.059-18.894l29.953 12.553c1.082 2.473 8.27 14.886 43.873 20.441 6.537 1.063 13.375 1.621 20.265 1.653 26.227 0 43.031-9.072 55.147-17.581 1.923-1.36 4.375-3.001 7.212-4.818l48.705 18.308c-26.132 16.41-51.854 31.647-69.836 39.852-21.443 9.728-48.488 21.098-70.508 30.216-30.843-9.869-59.763-20.535-60.1-20.675h-.144l-.144-.059L4.9 160.814v2.52l17.573 4.689A820 820 0 0 1 4.9 169.992v2.074a788 788 0 0 0 23.246-2.672c5.073 1.864 30.795 11.229 58.369 20.066-20.794 8.568-36.252 14.734-36.564 14.863-.448.194-.73.463-.793.753-.062.291.1.582.456.817.402.217.954.352 1.55.38s1.192-.053 1.671-.227c.313-.129 16.3-6.517 37.646-15.308a946 946 0 0 0 18.92 5.778l14.423 4.138c12.405 3.575 27.502 7.935 42.431 12.518l-43.56 23.079c-.285.157-.477.349-.558.555-.08.206-.045.419.101.617.168.19.436.356.778.48.343.123.746.2 1.169.223.409 0 40.291 1.699 72.696 23.958 28.199 19.363 54.955 35.643 102.193 46.673h11.058c-52.094-10.819-80.004-27.674-109.549-47.963-27.573-18.952-59.931-23.512-71.614-24.614l41.204-21.813c29.785 9.272 57.912 19.328 61.253 25.845 4.808 9.506 28.511 21.227 39.882 26.853 2.909 1.442 5.409 2.684 5.962 3.094 3.173 2.345 24.04 8.1 28.102 9.237l.505.093c4.087.563 29.184 3.892 49.089 3.892 10.385 0 19.352-.903 23.199-3.587 6.154-4.266 24.039-11.135 38.463-16.644 10.193-3.915 19.015-7.29 22.237-9.177.889-.528 4.976-2.344 11.515-5.251l16.972 8.275-129.574 51.724h7.212l125.607-50.154 22.405 10.924-90.509 39.23h6.851l88.49-38.351c.229-.103.411-.228.536-.367a.66.66 0 0 0 .189-.441.66.66 0 0 0-.189-.442 1.6 1.6 0 0 0-.536-.367l-23.775-11.592 108.828-43.462 36.973 14.511-136.714 59.25c-2.348 1.02-4.007 2.363-4.757 3.853-.75 1.489-.556 3.054.556 4.489 1.112 1.434 3.089 2.671 5.672 3.546s5.649 1.348 8.794 1.356c3.582-.005 7.053-.609 9.832-1.711l142.7-60.551 2.019.797v-4.594l-2.139.902-18.92-7.419 21.059-9.131v-2.965l-24.641 10.678-36.828-14.452 61.229-24.485v-2.813l-65.148 25.926-23.126-9.083a53055 53055 0 0 1 88.226-37.426v-2.942a53436 53436 0 0 0-91.832 38.961l-45.675-17.921c40.218-19.317 94.307-45.466 102.865-50.565 14.424-8.603 20.122-33.662 6.299-45.641-8.342-7.232-28.848-10.409-49.185-11.604L647.65 38.33zm-24.545 194.357 18.871 7.408-142.026 60.269c-2.232.916-5.118 1.362-8.023 1.24-2.906-.122-5.593-.802-7.471-1.89-1.877-1.088-2.792-2.495-2.541-3.912s1.644-2.727 3.875-3.642zM345.951 89.012c4.808-3.013 12.814-7.291 22.79-12.401 3.308-1.685 7.762-2.723 12.528-2.922 4.766-.198 9.516.457 13.363 1.843l94.428 34.062-75.028 35.163-97.289-38.211c16.227-9.658 28.872-17.359 29.208-17.57zm-70.845 4.055 35.17 13.807c-13.318 7.912-27.862 16.41-40.002 23.29l-33.655-12.612c13.174-8.205 26.275-16.62 38.487-24.485m-90.822 4.782c13.463-8.873 32.406-20.781 39.185-25.036l48.079 18.86c-12.236 7.887-25.361 16.303-38.463 24.519zm-20.722 61.547c18.198-8.205 44.089-23.653 70.34-40.097l33.391 12.553c-11.25 6.306-19.977 10.888-22.933 11.721-8.006 2.238-71.014 17.441-100.318 24.508a1359 1359 0 0 0 19.544-8.685zm5.553 52.135c-14.88-4.583-30.146-8.978-43.271-12.764-5.169-1.489-9.977-2.872-14.256-4.126a933 933 0 0 1-17.645-5.38 3430 3430 0 0 0 37.166-15.612c4.279-1.032 104.909-25.212 115.39-28.131 3.39-.949 12.789-5.86 24.545-12.447h.12c.349.001.694-.037 1.007-.113a2.6 2.6 0 0 0 .796-.321c.197-.125.336-.269.407-.423a.54.54 0 0 0 .001-.468c12.549-7.032 27.358-15.765 40.339-23.442l96.976 37.976-49.882 23.36h-.12l-77.504 46.509-69.643-26.618a4.4 4.4 0 0 0-1.599-.214c-.569.024-1.101.145-1.502.343zm205.035 67.044c-7.909 5.509-50.844 1.078-67.071-1.172-9.231-2.543-24.328-7.033-26.299-8.463a68 68 0 0 0-6.515-3.422c-11.082-5.486-34.136-16.913-38.704-25.786-3.678-7.185-31.877-17.418-62.503-26.959l39.329-20.816 69.715 26.736c.478.166 1.066.241 1.65.211.585-.03 1.127-.164 1.523-.376l75.461-45.289 23.607 100.015c-3.74 1.606-7.146 3.389-10.169 5.321zm74.211-32.069c-7.525 3.306-12.333 5.486-13.391 6.095-2.908 1.7-12.019 5.181-21.635 8.85-8.414 3.235-17.429 6.704-24.954 9.916l-23.607-100.473 49.474-23.172 89.091 34.893a11949 11949 0 0 1-40.867 19.551c-.345.173-.572.394-.649.633zm107.577-43.215 23.006 9.037-108.443 43.297-17.116-8.345c20.818-9.119 60.58-26.114 102.577-43.989zm-3.606-1.418c-37.862 16.116-76.47 32.619-98.563 42.301l12.501-40.648c3.582-1.712 20.025-9.553 40.723-19.481zm-45.675-20.805-88.947-34.94 75.172-35.163 90.87 32.819c-21.636 10.56-52.118 25.282-77.143 37.284zM615.436 87.3c12.814 11.135 7.453 35.222-5.865 43.157-2.885 1.723-11.275 6.001-22.694 11.651l-90.774-32.819 69.884-32.643c21.107 1.043 41.805 4.126 49.401 10.701z" opacity=".2"/><path fill="#01723B" d="M4.75 308.771h161.067c-11.035-2.579-27.622-6.634-29.641-8.1-3.029-2.215-19.713-16.28-28.848-17.018-9.135-.739-12.14 4.442-12.14 4.442l19.713 15.542-7.573-2.227s-18.222-9.623-22.766-11.1 0-7.396 1.515-11.838 12.02-7.396 15.169-11.1 0-14.804 0-18.496-13.654-14.803-22.765-23.688-39.45-25.891-56.157-29.595c-5.642-1.132-11.582-1.869-17.645-2.192zM383.622 89.024l-24.281 14.804 30.363 19.246 56.156-14.065zM413.982 155.63l-34.905 16.281 13.654 36.253 37.935 5.181 12.164-15.542 36.42-17.019z"/><path fill="#263238" stroke="#263238" stroke-linecap="round" stroke-linejoin="round" stroke-width=".966" d="M565.694 106.43h-39.023a5.525 5.525 0 0 0-5.121 3.412 5.6 5.6 0 0 0-.422 2.12v36.663a5.55 5.55 0 0 0 1.624 3.916 5.54 5.54 0 0 0 3.919 1.617h11.543l8.484 16.737 7.793-16.702h11.203a5.53 5.53 0 0 0 5.532-5.533v-36.698a5.54 5.54 0 0 0-1.62-3.912 5.54 5.54 0 0 0-3.912-1.62"/><path fill="#92E3A9" d="m538.86 124.234 1.348-8.967h2.765v12.635h-1.875v-9.06l-1.371 9.06h-1.875l-1.488-8.931v8.931h-1.723v-12.635h2.754zM544.203 118.299a3.012 3.012 0 1 1 6.023 0v6.564a3.012 3.012 0 1 1-6.023 0zm1.98 6.693c0 .902.399 1.242 1.031 1.242.633 0 1.02-.34 1.02-1.242v-6.845c0-.903-.399-1.243-1.02-1.243s-1.031.34-1.031 1.243zM553.274 118.748v9.154h-1.781v-12.635h2.484l2.039 7.56v-7.56h1.77v12.635h-2.04zM542.656 134.23c-.633 0-1.02.34-1.02 1.243v1.348h-1.886v-1.172c0-2.028 1.019-3.177 2.965-3.177s2.953 1.172 2.953 3.177c0 3.961-3.949 5.45-3.949 7.524q-.018.135 0 .27h3.75v1.805h-5.743v-1.559c0-3.715 3.938-4.325 3.938-7.97.023-1.16-.375-1.489-1.008-1.489M549.805 134.23c-.633 0-1.031.34-1.031 1.243v1.348h-1.875v-1.172c0-2.028 1.019-3.177 2.964-3.177s2.954 1.172 2.954 3.177c0 3.961-3.95 5.45-3.95 7.524q-.016.135 0 .27h3.75v1.805h-5.742v-1.559c0-3.715 3.938-4.325 3.938-7.97.023-1.16-.375-1.489-1.008-1.489"/><path fill="#92E3A9" stroke="#263238" stroke-linecap="round" stroke-linejoin="round" stroke-width=".966" d="M546.184 183.25a4.324 4.324 0 1 0 0-8.649 4.324 4.324 0 0 0 0 8.649M412.731 75.016a4.325 4.325 0 1 0-.001-8.649 4.325 4.325 0 0 0 .001 8.65M474.043 177.484a4.32 4.32 0 0 1-2.677 3.988 4.33 4.33 0 0 1-4.709-.945 4.33 4.33 0 0 1-.932-4.712 4.32 4.32 0 0 1 3.994-2.668 4.33 4.33 0 0 1 3.999 2.679c.216.526.327 1.089.325 1.658M377.855 149.214a4.325 4.325 0 1 0-.002-8.65 4.325 4.325 0 0 0 .002 8.65M395.797 253.751a4.34 4.34 0 0 1-2.677 4.007 4.34 4.34 0 0 1-4.725-.94 4.34 4.34 0 0 1 3.066-7.403 4.33 4.33 0 0 1 4.336 4.336M596.271 250.915a4.325 4.325 0 1 0-.002-8.65 4.325 4.325 0 0 0 .002 8.65M618.429 117.692a4.325 4.325 0 1 0-.002-8.65 4.325 4.325 0 0 0 .002 8.65M595.239 75.745a4.325 4.325 0 1 0-.001-8.649 4.325 4.325 0 0 0 .001 8.65M607.038 183.531a4.34 4.34 0 0 1-2.679 4.008 4.338 4.338 0 0 1-5.911-3.169 4.34 4.34 0 0 1 7.328-3.905 4.33 4.33 0 0 1 1.262 3.066M487.753 142.848a4.324 4.324 0 1 0 0-8.649 4.324 4.324 0 0 0 0 8.649"/><circle cx="245" cy="143" r="54.725" fill="#039855" stroke="#039855" stroke-width=".55" opacity=".1"/><circle cx="245" cy="143" r="54.725" stroke="#039855" stroke-width=".55"/><g clip-path="url(#b)"><path fill="url(#c)" stroke="url(#d)" stroke-linecap="round" stroke-linejoin="round" stroke-width="1.222" d="M243.933 150.641c.568.821.853 1.232.943 1.268.113.046.131.046.245 0 .09-.036.374-.447.943-1.268 1.896-2.738 5.449-4.917 5.449-9.043a6.515 6.515 0 0 0-13.03 0c0 4.126 3.553 6.305 5.45 9.043"/><path fill="#fff" d="M245.003 144.993a3.393 3.393 0 1 0 0-6.786 3.393 3.393 0 0 0 0 6.786"/></g><path fill="url(#e)" d="M0 0h648v309H0z"/><defs><linearGradient id="a" x1="-204.943" x2="150.75" y1="-24.271" y2="639.94" gradientUnits="userSpaceOnUse"><stop stop-color="#132810"/><stop offset="1" stop-color="#020503"/></linearGradient><linearGradient id="c" x1="244.998" x2="244.998" y1="135.083" y2="152.999" gradientUnits="userSpaceOnUse"><stop stop-color="#008745"/><stop offset="1" stop-color="#006534"/></linearGradient><linearGradient id="d" x1="244.998" x2="244.998" y1="135.083" y2="152.999" gradientUnits="userSpaceOnUse"><stop stop-color="#008745"/><stop offset="1" stop-color="#006534"/></linearGradient><radialGradient id="e" cx="0" cy="0" r="1" gradientTransform="translate(324 154.5) rotate(90) scale(154.5 324)" gradientUnits="userSpaceOnUse"><stop stop-color="#020503" stop-opacity="0"/><stop offset=".274" stop-color="#020503" stop-opacity="0"/><stop offset="1" stop-color="#020503"/></radialGradient><clipPath id="b"><path fill="#fff" d="M235.227 133.456h19.544V153h-19.544z"/></clipPath></defs></svg>