<svg xmlns="http://www.w3.org/2000/svg" width="324" height="305" fill="none" viewBox="0 0 324 305"><path fill="url(#a)" d="M139.92 47.09H8.55A8.55 8.55 0 0 0 0 55.64v94.8a8.55 8.55 0 0 0 8.55 8.55h131.37a8.55 8.55 0 0 0 8.55-8.55v-94.8a8.55 8.55 0 0 0-8.55-8.55" opacity=".5"/><path fill="#008745" stroke="#153324" stroke-linecap="round" stroke-linejoin="round" d="m48 98.27-31.74 10.3A33.4 33.4 0 0 1 37.7 66.49 31.7 31.7 0 0 1 48 64.85z"/><path fill="#020503" stroke="#153324" stroke-linecap="round" stroke-linejoin="round" d="m48 98.27 19.63 27A33.393 33.393 0 0 1 21 117.88a31.8 31.8 0 0 1-4.74-9.31z"/><path fill="#153324" stroke="#153324" stroke-linecap="round" stroke-linejoin="round" d="m48 98.27 31.76-10.32a32.87 32.87 0 0 1-12.11 37.32z"/><path fill="#020503" stroke="#153324" stroke-linecap="round" stroke-linejoin="round" d="M48 98.27v-33.4a32.88 32.88 0 0 1 31.76 23.08z"/><path fill="#020503" stroke="#153324" stroke-linecap="round" stroke-linejoin="round" d="M48.05 119.07c11.499 0 20.82-9.322 20.82-20.82s-9.322-20.82-20.82-20.82-20.82 9.321-20.82 20.82c0 11.498 9.321 20.82 20.82 20.82"/><path fill="#008745" stroke="#153324" stroke-linecap="round" stroke-linejoin="round" d="M136.55 62.83H90.8v3.79h45.75z"/><path fill="#153324" stroke="#153324" stroke-linecap="round" stroke-linejoin="round" d="M126.71 70.94H90.8v3.79h35.91z"/><path fill="#020503" stroke="#153324" stroke-linecap="round" stroke-linejoin="round" d="M117.19 79.05H90.8v3.79h26.39z"/><path fill="#008745" stroke="#153324" stroke-linecap="round" stroke-linejoin="round" d="M128.3 87.16H90.8v3.79h37.5z"/><path fill="#153324" stroke="#153324" stroke-linecap="round" stroke-linejoin="round" d="M108.62 95.27H90.8v3.79h17.82z"/><path fill="#020503" stroke="#153324" stroke-linecap="round" stroke-linejoin="round" d="M136.55 103.39H90.8v3.79h45.75z"/><path fill="#008745" stroke="#153324" stroke-linecap="round" stroke-linejoin="round" d="M124.49 111.5H90.8v3.79h33.69z"/><path fill="#153324" stroke="#153324" stroke-linecap="round" stroke-linejoin="round" d="M120.24 119.61H90.8v3.79h29.44z"/><path fill="#020503" stroke="#153324" stroke-linecap="round" stroke-linejoin="round" d="M136.55 127.72H90.8v3.79h45.75z"/><path stroke="#153324" stroke-linecap="round" stroke-linejoin="round" d="M31.02 138.77h35.46M26 143.77h45.5M92.02 138.77h35.46M87 143.77h45.5"/><path fill="url(#b)" d="M139.91 206.41H27.09a8.55 8.55 0 0 0-8.55 8.55v80.82a8.55 8.55 0 0 0 8.55 8.55h112.82a8.55 8.55 0 0 0 8.55-8.55v-80.82a8.55 8.55 0 0 0-8.55-8.55" opacity=".5"/><path stroke="#153324" stroke-linecap="round" stroke-linejoin="round" d="M27.44 252.96h17.33M27.44 256.88h27.41M27.44 260.79h17.33M27.44 264.7h25M27.44 268.62h17.33M27.44 272.53h30.62M70.84 252.96h17.33M70.84 256.88h27.41M70.84 260.79h17.33M70.84 264.7h25M70.84 268.62h17.33M70.84 272.53h30.62M114.24 252.96h17.33M114.24 256.88h27.4M114.24 260.79h17.33M114.24 264.7h24.99M114.24 268.62h17.33M114.24 272.53h30.62"/><path fill="#153324" d="M59.87 240.1H26.33v6.71h33.54zM104.03 240.1H70.49v6.71h33.54zM148.19 240.1h-33.54v6.71h33.54z"/><path stroke="#153324" stroke-linecap="round" stroke-linejoin="round" d="M65.1 239.71v33.95M108.9 239.71v33.95"/><path fill="#008745" stroke="#153324" stroke-miterlimit="10" stroke-width=".5" d="m40 224.2 7.26-2.36a7.63 7.63 0 1 1-9.62-4.9 7.3 7.3 0 0 1 2.36-.37z"/><path fill="#153324" stroke="#153324" stroke-miterlimit="10" stroke-width=".5" d="M40 224.2v-7.63a7.505 7.505 0 0 1 7.26 5.27z"/><path fill="#008745" stroke="#153324" stroke-miterlimit="10" stroke-width=".5" d="m113.5 224.2 7.26-2.36a7.63 7.63 0 1 1-9.61-4.9 7.2 7.2 0 0 1 2.35-.37z"/><path fill="#153324" stroke="#153324" stroke-miterlimit="10" stroke-width=".5" d="M113.5 224.2v-7.63a7.5 7.5 0 0 1 7.26 5.27z"/><path fill="#008745" stroke="#153324" stroke-miterlimit="10" stroke-width=".5" d="M64.52 224.2v7.63a7.631 7.631 0 0 1 0-15.26z"/><path fill="#153324" stroke="#153324" stroke-miterlimit="10" stroke-width=".5" d="M64.52 224.2v-7.63a7.63 7.63 0 0 1 0 15.26z"/><path fill="#008745" stroke="#153324" stroke-miterlimit="10" stroke-width=".5" d="m89 224.2 7.26 2.36a7.635 7.635 0 0 1-14.52-4.72 7.51 7.51 0 0 1 7.26-5.27z"/><path fill="#153324" stroke="#153324" stroke-miterlimit="10" stroke-width=".5" d="M89 224.2v-7.63a7.633 7.633 0 0 1 7.64 7.63c.004.803-.124 1.6-.38 2.36z"/><path fill="#008745" stroke="#153324" stroke-miterlimit="10" stroke-width=".5" d="m138 224.2 7.26 2.36a7.635 7.635 0 0 1-14.52-4.72 7.51 7.51 0 0 1 7.26-5.27z"/><path fill="#153324" stroke="#153324" stroke-miterlimit="10" stroke-width=".5" d="M138 224.2v-7.63a7.62 7.62 0 0 1 7.052 4.709c.383.926.579 1.919.578 2.921a7.3 7.3 0 0 1-.37 2.36z"/><path fill="#008745" stroke="#153324" stroke-linecap="round" stroke-linejoin="round" stroke-width=".75" d="M139.5 293.47h-6.68v2.26h6.68z"/><path fill="#153324" stroke="#153324" stroke-linecap="round" stroke-linejoin="round" stroke-width=".75" d="M132.08 282.18h-6.68v13.55h6.68z"/><path fill="#020503" stroke="#153324" stroke-linecap="round" stroke-linejoin="round" stroke-width=".75" d="M124.67 287.05h-6.68v8.69h6.68z"/><path fill="#008745" stroke="#153324" stroke-linecap="round" stroke-linejoin="round" stroke-width=".75" d="M117.25 280.27h-6.68v15.46h6.68z"/><path fill="#153324" stroke="#153324" stroke-linecap="round" stroke-linejoin="round" stroke-width=".75" d="M109.83 291.74h-6.68v4h6.68z"/><path fill="#020503" stroke="#153324" stroke-linecap="round" stroke-linejoin="round" stroke-width=".75" d="M102.41 290.52h-6.68v5.21h6.68z"/><path fill="#008745" stroke="#153324" stroke-linecap="round" stroke-linejoin="round" stroke-width=".75" d="M94.99 285.31h-6.68v10.43h6.68z"/><path fill="#153324" stroke="#153324" stroke-linecap="round" stroke-linejoin="round" stroke-width=".75" d="M87.57 294h-6.68v1.74h6.68z"/><path fill="#020503" stroke="#153324" stroke-linecap="round" stroke-linejoin="round" stroke-width=".75" d="M80.15 282.18h-6.68v13.55h6.68z"/><path fill="#008745" stroke="#153324" stroke-linecap="round" stroke-linejoin="round" stroke-width=".75" d="M72.73 284.79h-6.68v10.95h6.68z"/><path fill="#153324" stroke="#153324" stroke-linecap="round" stroke-linejoin="round" stroke-width=".75" d="M65.32 295.21h-6.68v.52h6.68z"/><path fill="#020503" stroke="#153324" stroke-linecap="round" stroke-linejoin="round" stroke-width=".75" d="M57.9 295.04h-6.68v.69h6.68z"/><path fill="#008745" stroke="#153324" stroke-linecap="round" stroke-linejoin="round" stroke-width=".75" d="M50.48 287.05H43.8v8.69h6.68z"/><path fill="#153324" stroke="#153324" stroke-linecap="round" stroke-linejoin="round" stroke-width=".75" d="M43.06 294h-6.68v1.74h6.68z"/><path fill="#020503" stroke="#153324" stroke-linecap="round" stroke-linejoin="round" stroke-width=".75" d="M35.64 292.26h-6.68v3.48h6.68z"/><path fill="url(#c)" d="M314.8 120.89H183.43a8.55 8.55 0 0 0-8.55 8.55v94.8a8.55 8.55 0 0 0 8.55 8.55H314.8a8.55 8.55 0 0 0 8.55-8.55v-94.8a8.55 8.55 0 0 0-8.55-8.55" opacity=".5"/><path fill="#008745" stroke="#153324" stroke-linecap="round" stroke-linejoin="round" stroke-width=".75" d="M314 208.44h-7.7v8.54h7.7z"/><path fill="#153324" stroke="#153324" stroke-linecap="round" stroke-linejoin="round" stroke-width=".75" d="M305.44 165.74h-7.7v51.23h7.7z"/><path fill="#020503" stroke="#153324" stroke-linecap="round" stroke-linejoin="round" stroke-width=".75" d="M296.88 184.14h-7.7v32.84h7.7z"/><path fill="#008745" stroke="#153324" stroke-linecap="round" stroke-linejoin="round" stroke-width=".75" d="M288.33 158.52h-7.7v58.46h7.7z"/><path fill="#153324" stroke="#153324" stroke-linecap="round" stroke-linejoin="round" stroke-width=".75" d="M279.77 201.87h-7.7v15.11h7.7z"/><path fill="#020503" stroke="#153324" stroke-linecap="round" stroke-linejoin="round" stroke-width=".75" d="M271.21 197.27h-7.7v19.7h7.7z"/><path fill="#008745" stroke="#153324" stroke-linecap="round" stroke-linejoin="round" stroke-width=".75" d="M262.66 177.57h-7.7v39.41h7.7z"/><path fill="#153324" stroke="#153324" stroke-linecap="round" stroke-linejoin="round" stroke-width=".75" d="M254.1 210.41h-7.7v6.57h7.7z"/><path fill="#020503" stroke="#153324" stroke-linecap="round" stroke-linejoin="round" stroke-width=".75" d="M245.54 165.74h-7.7v51.23h7.7z"/><path fill="#008745" stroke="#153324" stroke-linecap="round" stroke-linejoin="round" stroke-width=".75" d="M236.99 175.6h-7.7v41.38h7.7z"/><path fill="#153324" stroke="#153324" stroke-linecap="round" stroke-linejoin="round" stroke-width=".75" d="M228.43 215h-7.7v1.97h7.7z"/><path fill="#020503" stroke="#153324" stroke-linecap="round" stroke-linejoin="round" stroke-width=".75" d="M219.87 214.35h-7.7v2.63h7.7z"/><path fill="#008745" stroke="#153324" stroke-linecap="round" stroke-linejoin="round" stroke-width=".75" d="M211.31 184.14h-7.7v32.84h7.7z"/><path fill="#153324" stroke="#153324" stroke-linecap="round" stroke-linejoin="round" stroke-width=".75" d="M202.76 210.41h-7.7v6.57h7.7z"/><path fill="#020503" stroke="#153324" stroke-linecap="round" stroke-linejoin="round" stroke-width=".75" d="M194.2 203.84h-7.7v13.14h7.7z"/><path fill="#008745" stroke="#153324" stroke-miterlimit="10" d="M314.5 144.27h-127v6.5h127z"/><path fill="#153324" stroke="#153324" stroke-miterlimit="10" d="M241.56 144.74h-20.6v5.55h20.6z"/><path fill="#020503" stroke="#153324" stroke-miterlimit="10" d="M281.08 144.74h-38.69v5.55h38.69z"/><path fill="url(#d)" d="M299.33 0H196.29a8.55 8.55 0 0 0-8.55 8.55V82a8.55 8.55 0 0 0 8.55 8.55h103.04a8.55 8.55 0 0 0 8.55-8.55V8.55A8.55 8.55 0 0 0 299.33 0" opacity=".5"/><path stroke="#153324" stroke-miterlimit="10" stroke-width=".5" d="M193.32 82.07h112.8M193.32 82.07v1.67M200.84 82.07v1.67M208.36 82.07v1.67M215.88 82.07v1.67M223.4 82.07v1.67M230.92 82.07v1.67M238.44 82.07v1.67M245.96 82.07v1.67M253.48 82.07v1.67M261 82.07v1.67M268.52 82.07v1.67M276.04 82.07v1.67M283.56 82.07v1.67M291.08 82.07v1.67M298.6 82.07v1.67M306.12 82.07v1.67"/><path fill="#008745" d="M197.08 80.71h105.28V66.16l-7.45-14.4a1.2 1.2 0 0 1-.1-.32l-6.62-42.71a.8.8 0 1 0-1.6 0l-6.74 52.14a1 1 0 0 1-.35.64l-6.49 5a.762.762 0 0 1-1.16-.33l-6.54-13.49a.75.75 0 0 0-1.31-.17l-6.76 8.75-7.52 9.7-7.52-9.7-6.63-8.55a.76.76 0 0 0-1.36.3l-7 21.83-7.52-38.91-7.52 42.79-7.52-5.82-6-16.9c-.34-1-1.56-.68-1.56.36z"/><path fill="#153324" d="M302.36 80.74H197.08V68.27l7.44-12.38a.7.7 0 0 0 .1-.28l6.62-36.73a.82.82 0 0 1 .805-.664.82.82 0 0 1 .805.664l6.73 44.84a.86.86 0 0 0 .36.55l6.49 4.32a.81.81 0 0 0 1.16-.28l6.53-11.6a.81.81 0 0 1 .997-.357q.182.07.313.217l6.77 7.5 7.52 8.34 7.52-8.34 6.62-7.35a.82.82 0 0 1 .757-.252.82.82 0 0 1 .613.512l7 18.77h7.52l7.52 3.34 7.52-5 6-14.53a.809.809 0 0 1 1.57.31z"/><path stroke="#153324" stroke-linecap="round" stroke-linejoin="round" d="M254.09 12.07h23.3M254.09 17.53h23.3M254.09 22.98h23.3M254.09 28.44h23.3M254.09 33.89h23.3M254.09 39.35h23.3M248.79 12.07h2.92M248.79 17.53h2.92M248.79 22.98h2.92M248.79 28.44h2.92M248.79 33.89h2.92M248.79 39.35h2.92"/><defs><linearGradient id="a" x1="74.235" x2="74.235" y1="47.09" y2="158.99" gradientUnits="userSpaceOnUse"><stop stop-color="#0B2514"/><stop offset="1" stop-color="#020503"/></linearGradient><linearGradient id="b" x1="83.5" x2="83.5" y1="206.41" y2="304.33" gradientUnits="userSpaceOnUse"><stop stop-color="#0B2514"/><stop offset="1" stop-color="#020503"/></linearGradient><linearGradient id="c" x1="249.115" x2="249.115" y1="120.89" y2="232.79" gradientUnits="userSpaceOnUse"><stop stop-color="#0B2514"/><stop offset="1" stop-color="#020503"/></linearGradient><linearGradient id="d" x1="247.81" x2="247.81" y1="0" y2="90.55" gradientUnits="userSpaceOnUse"><stop stop-color="#0B2514"/><stop offset="1" stop-color="#020503"/></linearGradient></defs></svg>