<svg xmlns="http://www.w3.org/2000/svg" width="294" height="295" fill="none" viewBox="0 0 294 295"><g filter="url(#a)" opacity=".3"><ellipse cx="147" cy="147.5" fill="url(#b)" rx="147" ry="147.5"/></g><rect width="78.361" height="38.081" x="107.516" y="34" fill="#008745" rx="11.2" transform="rotate(4.6483 107.516 34)"/><path fill="#fff" d="m122.56 59.343.793-9.743 6.108.497-.103 1.265-4.638-.377-.242 2.969 4.32.351-.103 1.26-4.319-.35-.243 2.982 4.696.382-.103 1.265zm9.733-3.576-.353 4.339-1.422-.116.594-7.307 1.365.111-.096 1.19.09.007q.299-.56.865-.868.572-.309 1.394-.241.747.06 1.283.42.537.355.796.993.258.639.185 1.543l-.378 4.648-1.422-.116.364-4.476q.065-.795-.313-1.276-.377-.485-1.1-.544a1.8 1.8 0 0 0-.898.143 1.55 1.55 0 0 0-.655.578q-.252.392-.299.972m9.06 8.015q-.871-.07-1.48-.35a2.9 2.9 0 0 1-.969-.687 2.55 2.55 0 0 1-.523-.87l1.263-.406q.112.22.307.47.2.257.557.453.362.197.952.245.808.066 1.369-.286.56-.347.629-1.203l.117-1.437-.09-.008a3.3 3.3 0 0 1-.414.489 2 2 0 0 1-.696.441q-.436.175-1.107.121a3.05 3.05 0 0 1-1.527-.531q-.657-.465-.996-1.293-.334-.831-.24-1.997.095-1.165.557-1.966.468-.8 1.198-1.186a2.86 2.86 0 0 1 1.611-.319q.68.056 1.08.318.4.258.609.576.214.32.324.558l.104.008.097-1.184 1.393.113-.607 7.469q-.077.942-.563 1.51a2.6 2.6 0 0 1-1.257.798q-.767.23-1.698.154m.325-4.182q.614.05 1.06-.201.453-.255.715-.776.267-.524.329-1.28.06-.737-.113-1.317a1.94 1.94 0 0 0-.571-.927q-.398-.353-1.021-.404-.642-.053-1.097.246a2 2 0 0 0-.72.842 3.6 3.6 0 0 0-.317 1.248q-.058.718.116 1.278.175.561.578.9.408.339 1.041.39m7.328-7.914-.792 9.743-1.422-.116.792-9.742zm1.122 9.898.594-7.306 1.422.115-.594 7.307zm1.404-8.376a.9.9 0 0 1-.617-.299.8.8 0 0 1-.213-.62.8.8 0 0 1 .31-.578.9.9 0 0 1 .658-.2.88.88 0 0 1 .612.303q.246.27.218.62a.8.8 0 0 1-.315.579.9.9 0 0 1-.653.196m7.856 3.57-1.307.123a1.6 1.6 0 0 0-.219-.491 1.3 1.3 0 0 0-.436-.405q-.284-.166-.726-.202-.604-.05-1.031.189-.426.234-.46.657a.73.73 0 0 0 .223.612q.254.246.846.437l1.139.36q.989.316 1.444.842.456.525.393 1.3a1.92 1.92 0 0 1-.476 1.14q-.417.478-1.116.713-.695.237-1.579.164-1.228-.1-1.961-.686-.732-.592-.829-1.576l1.392-.097q.084.547.461.856.378.303 1.02.356.7.057 1.142-.2.442-.26.477-.684a.75.75 0 0 0-.21-.596q-.234-.255-.747-.415l-1.215-.372q-1.004-.316-1.452-.865-.444-.549-.381-1.329.053-.647.454-1.103t1.06-.675q.66-.225 1.483-.157 1.185.096 1.823.666.64.564.788 1.438m3.033 1.439-.353 4.338-1.422-.115.792-9.743 1.403.114-.294 3.625.09.007q.305-.569.861-.873t1.408-.235q.751.061 1.288.416.54.355.8.994.264.634.19 1.548l-.378 4.648-1.422-.116.364-4.477q.065-.803-.313-1.28-.377-.48-1.114-.54a1.9 1.9 0 0 0-.922.14 1.55 1.55 0 0 0-.674.578q-.257.39-.304.97"/><rect width="69.361" height="38.081" x="126.685" y="147" fill="#008745" rx="11.2" transform="rotate(8.58582 126.685 147)"/><path fill="#fff" d="M149.249 167.23a1.7 1.7 0 0 1-.291.758 1.5 1.5 0 0 1-.502.441q-.357.204-.909.257a5.3 5.3 0 0 1-1.282-.058l-1.847-.279.17-1.129 2.14.323q.412.062.63.054a.8.8 0 0 0 .357-.109.4.4 0 0 0 .176-.177.85.85 0 0 0 .069-.547.5.5 0 0 0-.112-.248.67.67 0 0 0-.297-.194q-.192-.084-.643-.152l-4.904-.74.172-1.143 4.798.724q.784.119 1.218.306.435.175.726.504.207.249.305.59t.026.819m-5.29 6.854q-1.674-.252-2.7-.842-1.01-.602-1.427-1.439a3 3 0 0 1-.26-1.793q.115-.757.52-1.281a2.3 2.3 0 0 1 1.036-.74 2.67 2.67 0 0 1 1.351-.123q.61.093 1.002.383.394.276.559.71.167.418.092.924-.129.85-.772 1.243-.632.393-1.641.241a2.7 2.7 0 0 1-.652-.18 3.6 3.6 0 0 1-.538-.312 4 4 0 0 1-.409-.347l.347-.954a3 3 0 0 0 .512.485q.294.208.693.268.571.087.87-.086a.73.73 0 0 0 .367-.543q.048-.318-.125-.521-.171-.217-.53-.271a1.3 1.3 0 0 0-.691.073 1.35 1.35 0 0 0-.552.419 1.55 1.55 0 0 0-.286.718l-.01.067a1.7 1.7 0 0 0 .114.955q.193.437.629.788.439.337 1.096.573.67.238 1.548.37 1.077.162 1.836.087.772-.073 1.243-.315.488-.253.731-.61a1.85 1.85 0 0 0 .324-.794l.064-.426a1.2 1.2 0 0 0-.294-.751q-.277-.327-.782-.403-.32-.048-.613.097-.292.133-.352.532a.67.67 0 0 0 .137.537q.196.233.607.296.346.051.603-.032.273-.094.455-.312.195-.214.308-.51l.202 1.185a4.3 4.3 0 0 1-.555.433 1.6 1.6 0 0 1-.606.235 2.5 2.5 0 0 1-.787-.01 2.3 2.3 0 0 1-.902-.327 1.6 1.6 0 0 1-.58-.658q-.183-.408-.101-.953.112-.744.681-1.094.571-.362 1.422-.233.133.02.251.051.131.033.259.08.142.048.256.107l-.573-.073a3 3 0 0 0-.555-.288 6 6 0 0 0-.646-.22 4 4 0 0 0-.59-.143l.438-.831q.945.224 1.633.613.705.378 1.13.891.44.502.607 1.111.166.61.064 1.288a3.3 3.3 0 0 1-.503 1.351q-.373.582-1.053.942-.664.349-1.633.46-.966.099-2.269-.098m10.241 1.547q-1.435-.217-2.346-.844-.91-.64-1.288-1.554-.363-.924-.199-2.014.147-.97.595-1.596.45-.639 1.102-.907a2.6 2.6 0 0 1 1.409-.155q.612.093.988.394.39.29.557.723.167.42.089.938a1.97 1.97 0 0 1-.386.934 1.65 1.65 0 0 1-.818.556q-.498.156-1.217.047a2.4 2.4 0 0 1-.828-.274 2.7 2.7 0 0 1-.61-.459 3.6 3.6 0 0 1-.392-.467l.45-.911q.096.177.265.407.17.23.442.406.285.18.671.238.504.076.8-.083.312-.17.37-.556.05-.333-.119-.562a.7.7 0 0 0-.5-.293q-.584-.088-1.031.347-.43.424-.549 1.209l-.048.319q-.07.465.036.93.12.467.438.881.32.402.885.705.567.303 1.404.429 1.395.211 2.303-.223.909-.434 1.073-1.523a2.12 2.12 0 0 0-.219-1.338q-.328-.62-1.16-1.141l.867-1.065q1.003.654 1.512 1.601.51.948.335 2.103a3.4 3.4 0 0 1-.73 1.684q-.57.716-1.611 1.035-1.025.307-2.54.079m6.294.95q-.917-.139-1.527-.693a5.4 5.4 0 0 1-1.044-1.367l.807-.844q.279.491.579.849t.661.576.773.279q.624.094 1.002-.243.39-.334.5-1.066.11-.73-.113-1.322a3.2 3.2 0 0 0-.668-1.066 5.5 5.5 0 0 0-1.008-.886l.839-1.056q.754.495 1.318 1.178.563.683.834 1.499.27.815.128 1.759-.197 1.302-.989 1.957-.79.642-2.092.446m8.133-5.732q1.05.159 1.747.672.713.501 1.001 1.293.301.792.147 1.816a6.2 6.2 0 0 1-.382 1.451 5.3 5.3 0 0 1-.554 1.058q-.3.458-.6.821l-1.22-.742q.294-.323.578-.674.286-.364.506-.834.236-.482.332-1.119a3 3 0 0 0-.042-1.162 1.7 1.7 0 0 0-.538-.937q-.417-.39-1.214-.51-.638-.096-1.145.113-.505.195-.834.662-.33.467-.435 1.171-.13.864.046 1.584.177.72.529 1.358l-1.387.361a7.3 7.3 0 0 1-.498-1.652 5.6 5.6 0 0 1-.019-1.851 3.75 3.75 0 0 1 .64-1.63q.517-.723 1.358-1.073.841-.348 1.984-.176m-.527 1.062a2.3 2.3 0 0 1-.827-.287q-.359-.232-.601-.703t-.324-1.272l1.374-.187q.078.746.212 1.024a.58.58 0 0 0 .44.325.76.76 0 0 0 .49-.089q.249-.126.723-.557l.54-.517q.553-.514.991-.801.436-.288.9-.381.476-.091 1.087.001l-.083 1.184a2.4 2.4 0 0 0-.809.041 1.7 1.7 0 0 0-.641.284q-.288.201-.685.576l-.411.386q-.397.375-.786.615-.375.23-.771.333-.381.092-.819.025m4.905 6.559q-.917-.14-1.527-.693a5.4 5.4 0 0 1-1.044-1.367l.807-.844q.279.491.579.849t.661.575q.36.219.773.28.624.095 1.002-.243.39-.334.5-1.066.11-.73-.113-1.322a3.2 3.2 0 0 0-.668-1.066 5.5 5.5 0 0 0-1.008-.886l.839-1.056q.754.495 1.318 1.178.562.683.834 1.499.27.815.128 1.759-.197 1.303-.989 1.957-.79.642-2.092.446"/><rect width="91.361" height="38.081" x="62.389" y="222.494" fill="#008745" rx="11.2" transform="rotate(-8.37127 62.3894 222.494)"/><path fill="#fff" d="M85.226 234.82q1.116-.165 1.938-.027.822.137 1.41.526.447.273.75.677.302.39.507.945.201.54.313 1.298l.515 3.498-8.404 1.236-.519-3.523a7 7 0 0 1-.081-1.293q.038-.576.212-1.05.189-.475.498-.861a3.6 3.6 0 0 1 1.13-.913q.694-.36 1.73-.513m-.573 1.184q-.505.075-.865.399a2.04 2.04 0 0 0-.537.786q-.148.375-.192.911-.032.52.078 1.266l.368 2.5h-.095q.765-.792 1.35-1.625a7.1 7.1 0 0 0 .87-1.663q.285-.817.18-1.548a1.6 1.6 0 0 0-.195-.583.82.82 0 0 0-.367-.367q-.236-.129-.595-.076m2.564.995q.11.745-.117 1.512a6.6 6.6 0 0 1-.734 1.561 15 15 0 0 1-1.208 1.673l-.151-.196q.366-.094.724-.16.37-.069.676-.114l2.712-.399-.332-2.26q-.141-.957-.417-1.542-.279-.598-.748-.922-.468-.326-1.176-.425l.013-.097q.267.246.476.555t.282.814m13.962-4.364 1.088 7.393-10 1.472-.606-4.122q-.15-1.011-.009-1.629a2.7 2.7 0 0 1 .48-1.076q.376-.49.957-.793.594-.305 1.392-.422.824-.121 1.467.001.654.108 1.114.461.517.373.808.968.29.582.415 1.434l.19 1.289-5.253.773.272 1.849 7.234-1.065-.932-6.329zm-6.555 1.889q-1.011.148-1.394.775-.372.612-.21 1.716l.044.292 3.869-.569-.041-.279q-.171-1.158-.714-1.621t-1.554-.314m17.65 4.195a5.8 5.8 0 0 1-1.201.054 4.7 4.7 0 0 1-1.232-.253 3 3 0 0 0-.227-.062 5 5 0 0 1-.213-.064q-.835-.407-1.378-.965a4.5 4.5 0 0 1-.861-1.232 5.3 5.3 0 0 1-.411-1.407 3.389 3.389 0 0 1 .187-1.78l.087-.148a2.5 2.5 0 0 1 .547-.801q.347-.323.781-.509.433-.2.912-.27 1.383-.203 2.262.51.892.71 1.112 2.2.177 1.21-.213 2.246a4.5 4.5 0 0 1-1.196 1.751q-.108.097-.205.18a4 4 0 0 1-.208.153q-.527.39-1.157.632-.617.24-1.321.344-1.118.165-2.031-.041a4.3 4.3 0 0 1-1.59-.744 4.2 4.2 0 0 1-1.119-1.33 5.5 5.5 0 0 1-.578-1.803q-.139-.944.118-1.688.258-.745.879-1.23.632-.5 1.577-.64.798-.117 1.426.089.64.192 1.103.667l-.893.946a1.84 1.84 0 0 0-.62-.52q-.354-.192-.86-.118a1.56 1.56 0 0 0-.816.365q-.339.28-.483.777-.13.495-.033 1.16.14.957.646 1.712.502.74 1.32 1.123.817.383 1.894.224.306-.045.594-.115.287-.083.543-.188.139-.075.279-.136.154-.064.279-.136a2.8 2.8 0 0 0 .74-.789q.332-.51.491-1.186.157-.689.037-1.5-.113-.77-.392-1.192-.28-.42-.668-.567a1.46 1.46 0 0 0-.761-.092 1.5 1.5 0 0 0-.802.363q-.313.277-.444.771-.117.493-.018 1.171.105.705.413 1.325.306.607.78 1.054.471.433 1.044.634a.6.6 0 0 0 .234.02.9.9 0 0 1 .245.005q.236.033.563.039t.686-.046q1.036-.153 1.668-.667.642-.53.891-1.327.264-.8.122-1.756a4.3 4.3 0 0 0-.449-1.388 3.9 3.9 0 0 0-.877-1.162l.974-.863q.746.638 1.178 1.457.434.82.566 1.723a5.2 5.2 0 0 1-.026 1.757 3.7 3.7 0 0 1-.635 1.506q-.472.667-1.287 1.127t-1.973.63m10.989-5.584q.114.771.058 1.499a3.7 3.7 0 0 1-.35 1.315q-.292.6-.857 1.009-.567.396-1.497.533-.732.108-1.297-.04a2.8 2.8 0 0 1-.977-.454 3.1 3.1 0 0 1-.662-.718 4.4 4.4 0 0 1-.418-.808l1.359-.458q.144.332.374.693t.587.579q.359.219.877.142.652-.096.985-.511.346-.418.427-1.068a5.3 5.3 0 0 0-.03-1.49 5.1 5.1 0 0 0-.399-1.422q-.264-.6-.701-.889-.44-.302-1.05-.212-.492.072-.786.387-.282.3-.413.699a3.8 3.8 0 0 0-.172.773l-1.42-.049q.056-.457.219-.916a3.3 3.3 0 0 1 .469-.87q.308-.412.807-.703.5-.29 1.219-.397.877-.129 1.51.104.63.22 1.069.712.437.48.698 1.147.26.656.371 1.413m5.476-3.632a7 7 0 0 0-1.313.316q-.569.192-.988.485-.42.28-.683.617a1.7 1.7 0 0 0-.332.701.2.2 0 0 0 .016.106q.036.063.029.104a3 3 0 0 0-.028.276q.006.135.028.281.11.746.45 1.116.35.356.923.272.545-.081.752-.423.206-.357.141-.796a1.1 1.1 0 0 0-.178-.476.8.8 0 0 0-.386-.31q-.232-.102-.591-.049-.545.081-.876.414a4.2 4.2 0 0 0-.568.668l-.604-.509a4 4 0 0 1 .489-.642q.318-.333.743-.585.422-.266.941-.342.719-.106 1.211.107.492.2.769.607.278.407.354.926.078.532-.104 1.047a1.84 1.84 0 0 1-.645.883q-.476.37-1.286.488a2.5 2.5 0 0 1-1.282-.123 2.2 2.2 0 0 1-.958-.783q-.38-.556-.501-1.38-.102-.691.114-1.348.213-.67.759-1.212.558-.545 1.438-.932.879-.4 2.089-.579 1.316-.194 2.191-.064.873.115 1.344.549.483.418.591 1.149.07.478-.101.885-.159.403-.571.736-.402.317-1.06.55l-1.155-.184-.057-.385.107-.016q.425-.063.712-.145.285-.097.474-.288a.9.9 0 0 0 .242-.388 1 1 0 0 0 .028-.453.95.95 0 0 0-.335-.616q-.267-.246-.834-.312-.569-.08-1.499.057m4.694 3.929q.065.438-.042.821t-.349.676q-.2.219-.472.396a3.3 3.3 0 0 1-.717.295 10 10 0 0 1-1.122.22l-2.726.401a6 6 0 0 0-.819.161 1.5 1.5 0 0 0-.408.182.57.57 0 0 0-.242.294.7.7 0 0 0-.029.358q.029.186.102.324.09.15.264.22.177.096.464.108.302.023.874-.061l5.505-.81.16 1.09-5.624.828a5.6 5.6 0 0 1-1.255.062 3 3 0 0 1-.896-.18 1.7 1.7 0 0 1-.673-.512 1.76 1.76 0 0 1-.305-.784 2 2 0 0 1 .047-.877 1.57 1.57 0 0 1 .492-.724q.18-.162.418-.292.253-.133.606-.225.35-.106.856-.181l2.899-.426q.546-.08.883-.185.336-.117.497-.317a.7.7 0 0 0 .183-.326 1.2 1.2 0 0 0 .013-.464 1.1 1.1 0 0 0-.16-.438.9.9 0 0 0-.356-.301 1.5 1.5 0 0 0-.493-.118 3.5 3.5 0 0 0-.781.047l-.226.034-.127-.865 1.455-.078q.978.087 1.491.528.511.427.613 1.119m3.919 1.596q-.825.121-1.483-.107a2.34 2.34 0 0 1-1.062-.754 2.66 2.66 0 0 1-.511-1.256q-.11-.746.141-1.352.262-.623.826-1.032t1.349-.525q.811-.119 1.457.112.643.218 1.071.725.428.508.541 1.279.112.758-.15 1.381a2.43 2.43 0 0 1-.828 1.018q-.553.394-1.351.511m-.587-3.989q-.585.087-.929.517-.333.417-.222 1.174.108.732.562 1.045.452.3 1.023.216.585-.085.931-.504.345-.43.235-1.175t-.561-1.045q-.44-.315-1.039-.228"/><rect width="53.361" height="38.081" x="53" y="96.936" fill="#008745" rx="11.2" transform="rotate(-10.0522 53 96.9365)"/><path fill="#fff" d="m73.93 110.284 1.265 7.133-1.297.23-1.265-7.133-1.138.202-.195-1.099 1.06-.187a2.9 2.9 0 0 1-.636-1.348c-.241-1.363.68-2.4 2.454-2.715 2.607-.462 4.94.612 6.694 2.649l-1.324.235c-1.345-1.427-3.138-2.147-4.924-1.83-1.151.204-1.708.835-1.556 1.695.08.45.302.78.575 1.086l1.416-.251.195 1.098zm5.548-4.737a.844.844 0 0 1 .67-.993.845.845 0 0 1 .972.702.843.843 0 0 1-.67.992.843.843 0 0 1-.972-.701m1.155 10.087c.508-.363.734-.785.666-1.169-.094-.529-.575-.854-1.567-.678-1.138.202-1.671.815-1.528 1.622.174.98 1.354 1.399 3.457 1.79l-.408 1.164c-2.393-.408-4.049-1.125-4.335-2.739-.134-.755.046-1.36.454-1.828-.551-.339-.911-.753-1.01-1.309-.176-.992.432-1.646 1.848-1.897l1.76-.312-.183-1.032-4.738.84-.195-1.099 7.359-1.304.194 1.098-1.323.235.375 2.117-2.872.509c-.714.127-.994.395-.92.819.05.278.282.509.584.674a4.6 4.6 0 0 1 1.341-.442c1.867-.331 2.798.459 2.988 1.531.13.728-.07 1.378-.827 2.031zm8.46.22a13 13 0 0 1-1.082-1.719c-.218.08-.451.148-.77.205-1.614.286-3.417-.186-3.757-2.105-.286-1.615.698-2.608 2.881-2.995l.675-.12-.2-1.125-4.631.822-.195-1.099 7.292-1.293.195 1.099-1.377.244.39 2.197-1.76.312c-1.47.26-2.13.841-1.962 1.794.172.966 1.033 1.36 2.237 1.146.133-.023.29-.065.43-.117a2 2 0 0 1-.153-.478c-.1-.569.211-.965.833-1.076.715-.126 1.309.301 1.415.896.08.45-.124.841-.556 1.177.316.476.672.945 1.185 1.524zm2.698-8.736 1.264 7.133-1.297.23-1.264-7.133-1.138.202-.195-1.099 1.112-.197c-.684-1.626-1.414-2.356-2.288-2.201-.715.126-.957.606-.835 1.294.089.503.361.96.69 1.434l-1.27.225c-.396-.544-.66-1.111-.757-1.654-.209-1.178.429-2.123 1.766-2.36 1.892-.336 2.96.84 3.898 3.049l1.442-.256.195 1.098z"/><rect width="73.361" height="38.081" x="189.542" y="85.315" fill="#008745" rx="11.2" transform="rotate(6.85725 189.542 85.3154)"/><path fill="#fff" d="M205.557 109.099a2.8 2.8 0 0 1-.992-.308 3.1 3.1 0 0 1-.84-.67 5 5 0 0 1-.71-1.074l1.063-.508q.339.663.678 1.002.351.34.859.401.506.061.884-.259.379-.333.487-1.241.116-.96-.208-1.419-.322-.473-1.003-.554a3.2 3.2 0 0 0-.785 0q-.371.05-.698.174l-.248-1.086q.453-.162.959-.21a4.4 4.4 0 0 1 1.015 0q.787.096 1.335.499.548.391.788 1.097.242.692.123 1.68-.101.84-.379 1.349-.264.51-.648.774a2.2 2.2 0 0 1-.825.334 3 3 0 0 1-.855.019m3.253 3.343 1.038-8.634 1.263.301-1.02 8.487zm-.067 3.024a4.47 4.47 0 0 1-2.809-1.407 8.6 8.6 0 0 1-1.02-1.314l1.028-.553q.458.69.89 1.149.417.47.902.718.484.248 1.098.321.668.081 1-.096t.383-.59q.047-.387-.213-.595a1.4 1.4 0 0 0-.687-.258 2.5 2.5 0 0 0-1.179.129l-.254-1.046a4 4 0 0 1 1.532-.127q1.041.125 1.554.701.497.588.396 1.429a1.63 1.63 0 0 1-.771 1.234q-.677.446-1.85.305m10.141-2.273q-.88-.106-1.374-.504a2 2 0 0 1-.671-.947 2.7 2.7 0 0 1-.107-1.136q.082-.68.394-1.252.326-.57.915-1.082a10 10 0 0 1 1.467-1.055q.526-.316 1.048-.605t1.101-.599q.591-.307 1.269-.646l.583 1.113a87 87 0 0 0-2.345 1.153q-.534.274-1.058.576-.8.459-1.242.88-.43.421-.613.819-.184.398-.233.812-.07.587.171.941.243.34.817.409.52.063.851-.209.345-.282.425-.95a3.4 3.4 0 0 0-.14-1.533q-.227-.704-.775-1.434a5.2 5.2 0 0 0-1.054-1.142 5.4 5.4 0 0 0-1.339-.797 5.6 5.6 0 0 0-1.561-.418q-.814-.097-1.221.246-.405.33-.468.851-.06.507.174.806.237.285.664.337.56.067.834-.184.276-.265.34-.799a2 2 0 0 0-.035-.721 1.9 1.9 0 0 0-.26-.654l1.115-.042q.17.277.307.714.15.437.084.985-.043.36-.208.719a1.8 1.8 0 0 1-.456.636 1.8 1.8 0 0 1-.753.41q-.45.135-1.117.055-.707-.085-1.167-.425a2.04 2.04 0 0 1-.666-.878q-.194-.524-.123-1.112.077-.64.461-1.135.4-.507 1.079-.751.693-.255 1.641-.141 1.561.188 2.743.939 1.198.74 2.089 1.998.639.876.922 1.789.297.903.185 1.837-.135 1.12-.854 1.697-.704.566-1.839.429m9.355.989a3.7 3.7 0 0 1-1.294-.385 4.3 4.3 0 0 1-1.004-.771 7 7 0 0 1-.797-1.03 16 16 0 0 1-.664-1.23l.269-.658q.58.015 1.153-.132.575-.162.969-.52.41-.37.482-.971.087-.72-.313-1.107-.399-.4-1.093-.483a4 4 0 0 0-.905-.014q-.424.043-.891.204l-.258-1.114a5.3 5.3 0 0 1 1.08-.209q.59-.064 1.191.008.827.1 1.432.47.608.358.9.961.293.605.193 1.431-.085.708-.46 1.244-.375.525-.958.874a4 4 0 0 1-1.288.467 4.6 4.6 0 0 1-1.427.045q-.627-.075-.935-.329-.295-.251-.239-.719.045-.374.323-.543t.678-.122q.36.043.674.244.316.187.704.68l-.13.066q.521.956.96 1.469.44.513.886.743.46.218 1.008.283l.227.028-.26 1.146zm3.657.44q-.64-.077-1.025-.258a1.5 1.5 0 0 1-.577-.489 1.5 1.5 0 0 1-.263-.628q-.051-.357.022-.972l.716-5.951 1.265.287-.692 5.752a2.5 2.5 0 0 0-.022.525q.021.165.126.299.126.192.35.246.237.055.544.092l-.244 1.121zm3.173.233a13 13 0 0 1-1.011-1.164 5 5 0 0 1-.654-1.202 2.64 2.64 0 0 1-.147-1.25q.065-.547.302-.938t.604-.631q.44-.287 1.073-.372.648-.099 1.769.037l1.602.192-.137 1.134-1.588-.191a8 8 0 0 0-.899-.067 1.7 1.7 0 0 0-.561.054q-.21.057-.385.157a1.1 1.1 0 0 0-.323.327q-.119.202-.153.482-.053.441.101.852.167.412.506.859.353.435.846.955zm4.653.708q-.64-.076-1.025-.258a1.47 1.47 0 0 1-.577-.489 1.6 1.6 0 0 1-.25-.626q-.052-.359.022-.972l.716-5.951 1.263.3-.69 5.738a2.4 2.4 0 0 0-.021.512.64.64 0 0 0 .1.297.64.64 0 0 0 .375.261q.25.057.543.093l-.243 1.121zm3.642.438a3.6 3.6 0 0 1-.973-.238 1.55 1.55 0 0 1-.629-.509 1.34 1.34 0 0 1-.27-.683 4.4 4.4 0 0 1 .029-.917l.722-6.004a6.5 6.5 0 0 0-.129-1.18 3.8 3.8 0 0 0-.271-.899 1.75 1.75 0 0 0-.414-.605.97.97 0 0 0-.538-.254.84.84 0 0 0-.675.203q-.287.25-.362.877a5.6 5.6 0 0 0-.038.767l-1.241-.149a4 4 0 0 1-.014-.449q.003-.257.029-.47.124-1.027.765-1.519.63-.506 1.644-.384.64.076 1.122.46.484.369.793.948.31.578.454 1.286.16.696.164 1.455l-.722 6.005a2.3 2.3 0 0 0-.021.512q.02.164.1.296a.64.64 0 0 0 .374.262q.25.057.544.092l-.243 1.121z"/><defs><radialGradient id="b" cx="0" cy="0" r="1" gradientTransform="translate(147 147.5) rotate(90) scale(147.5 147)" gradientUnits="userSpaceOnUse"><stop stop-color="#008745"/><stop offset="1" stop-color="#008745" stop-opacity="0"/></radialGradient><filter id="a" width="294" height="295" x="0" y="0" color-interpolation-filters="sRGB" filterUnits="userSpaceOnUse"><feFlood flood-opacity="0" result="BackgroundImageFix"/><feBlend in="SourceGraphic" in2="BackgroundImageFix" result="shape"/><feTurbulence baseFrequency="0.71428573131561279 0.71428573131561279" numOctaves="3" result="noise" seed="2296" stitchTiles="stitch" type="fractalNoise"/><feComponentTransfer in="noise" result="coloredNoise1"><feFuncR intercept="-.5" slope="2" type="linear"/><feFuncG intercept="-.5" slope="2" type="linear"/><feFuncB intercept="-.5" slope="2" type="linear"/><feFuncA tableValues="1 1 1 1 1 1 1 1 1 1 1 1 1 1 1 1 1 1 1 1 1 1 1 1 1 1 1 1 1 1 1 1 1 1 1 1 1 1 1 1 1 1 1 1 1 1 1 1 1 1 1 0 0 0 0 0 0 0 0 0 0 0 0 0 0 0 0 0 0 0 0 0 0 0 0 0 0 0 0 0 0 0 0 0 0 0 0 0 0 0 0 0 0 0 0 0 0 0 0 0" type="discrete"/></feComponentTransfer><feComposite in="coloredNoise1" in2="shape" operator="in" result="noise1Clipped"/><feComponentTransfer in="noise1Clipped" result="color1"><feFuncA tableValues="0 0.44" type="table"/></feComponentTransfer><feMerge result="effect1_noise_9123_26685"><feMergeNode in="shape"/><feMergeNode in="color1"/></feMerge></filter></defs></svg>