<svg xmlns="http://www.w3.org/2000/svg" width="207" height="79" fill="none" viewBox="0 0 207 79"><path fill="#fff" d="M103.739 40.223v18.535c0 1.664-1.35 3.014-3.105 3.014s-3.06-1.347-3.06-3.014V40.223h-4.997c-1.617 0-3.013-1.397-3.013-3.061s1.393-3.06 3.013-3.06h16.061c1.755 0 3.061 1.349 3.061 3.06s-1.306 3.06-3.061 3.06h-4.903zM118.316 35.95c.542-1.302 1.798-1.845 3.104-1.845s2.521.54 3.014 1.846l9.222 21.549c.72 1.574 0 3.375-1.574 4.002-.405.227-.763.27-1.212.27a3.015 3.015 0 0 1-2.789-1.844l-1.26-2.924h-10.843l-1.259 2.924a3.015 3.015 0 0 1-2.79 1.845c-.402 0-.854-.044-1.259-.271-1.574-.63-2.294-2.428-1.574-4.002l9.223-21.55zm3.104 8.413-2.833 6.48h5.535l-2.699-6.48zM135.265 41.392c.224-3.734 3.194-7.287 8.861-7.29h8.954a3.064 3.064 0 0 1 3.061 3.06 3.06 3.06 0 0 1-3.061 3.06h-9.266c-1.259 0-1.889.764-1.979 1.531 0 .764.542 1.527 1.664 1.936l8.73 2.833c4.093 1.35 5.894 4.681 5.757 7.963-.224 3.737-3.195 7.287-8.951 7.287h-9.538c-1.708 0-3.104-1.346-3.104-3.01 0-1.755 1.396-3.149 3.104-3.149h9.852c1.26 0 1.98-.72 1.98-1.53 0-.72-.496-1.53-1.665-1.845l-8.683-2.88c-4.096-1.396-5.847-4.725-5.713-7.963zM164.138 34.106c1.665 0 3.014 1.349 3.014 3.06v8.369l9.179-10.348a3.17 3.17 0 0 1 2.341-1.081c.72 0 1.44.224 2.026.722 1.259 1.126 1.393 3.105.314 4.408l-6.028 6.791 6.343 11.158c.854 1.484.359 3.285-1.081 4.23-.496.267-.992.358-1.531.358a3.11 3.11 0 0 1-2.699-1.527l-5.398-9.313-3.466 3.961v3.825c0 1.664-1.349 3.057-3.014 3.057-1.755 0-3.148-1.393-3.148-3.058V37.17c0-1.708 1.397-3.06 3.148-3.06zM183.683 41.392c.225-3.734 3.195-7.287 8.861-7.29h8.952c1.664 0 3.06 1.35 3.06 3.06a3.064 3.064 0 0 1-3.06 3.06h-9.266c-1.26 0-1.889.764-1.983 1.531 0 .764.543 1.527 1.665 1.936l8.73 2.833c4.092 1.35 5.893 4.681 5.756 7.963-.224 3.737-3.194 7.287-8.951 7.287h-9.537c-1.708 0-3.105-1.346-3.105-3.01 0-1.755 1.397-3.149 3.105-3.149h9.852c1.259 0 1.979-.72 1.979-1.53 0-.72-.496-1.53-1.664-1.845l-8.684-2.88c-4.095-1.396-5.85-4.725-5.713-7.963zM89.564 13.759c0-.415.333-.748.707-.748h4.23a4.2 4.2 0 0 1 4.185 4.185c0 2.291-1.876 4.146-4.186 4.146H91v3.79c0 .374-.333.707-.729.707a.715.715 0 0 1-.707-.707zm1.44.71v5.458h3.5a2.736 2.736 0 0 0 2.727-2.728 2.74 2.74 0 0 0-2.727-2.727h-3.5zM108.639 13.01c.374 0 .707.334.707.749a.73.73 0 0 1-.707.707h-6.73v4.248h5.894c.396 0 .708.334.708.708a.7.7 0 0 1-.708.707h-5.894v4.248h6.73c.374 0 .707.356.707.751a.73.73 0 0 1-.707.708h-7.437c-.396 0-.729-.334-.729-.708V13.755c0-.436.333-.748.729-.748h7.437zM115.505 14.47v10.665c0 .374-.334.707-.73.707a.73.73 0 0 1-.707-.707V14.469h-3.335a.73.73 0 0 1-.708-.707c0-.415.334-.748.708-.748h8.103c.374 0 .689.333.689.748 0 .374-.311.707-.689.707zM120.934 13.759c0-.415.333-.748.707-.748h4.23c2.312 0 4.185 1.895 4.185 4.185 0 2.291-1.876 4.146-4.185 4.146h-3.501v3.79c0 .374-.333.707-.729.707a.714.714 0 0 1-.707-.707zm1.436.71v5.458h3.501a2.736 2.736 0 0 0 2.727-2.728 2.74 2.74 0 0 0-2.727-2.727h-3.501zM161.383 13.01c.417 0 .751.334.751.749v7.352c0 2.602-2.104 4.706-4.706 4.728a.72.72 0 0 1-.73-.707c0-.396.312-.752.73-.752a3.275 3.275 0 0 0 3.269-3.27V13.76c0-.415.312-.748.686-.748M168.015 13.447c.103-.29.418-.436.708-.436a.77.77 0 0 1 .707.436l4.791 11.395c.168.374 0 .77-.374.938a.6.6 0 0 1-.271.062.72.72 0 0 1-.646-.436l-1.062-2.5h-6.312l-1.041 2.5c-.103.271-.396.436-.667.436a.7.7 0 0 1-.271-.062c-.374-.165-.542-.561-.374-.938zm.708 1.979-2.562 6.062h5.083zM140.261 25.858c-4.255 0-7.714-3.46-7.714-7.714s3.459-7.714 7.714-7.714c4.254 0 7.714 3.46 7.714 7.714a.707.707 0 1 1-1.415 0 6.303 6.303 0 0 0-6.296-6.296 6.303 6.303 0 0 0-6.296 6.296 6.3 6.3 0 0 0 6.296 6.296.706.706 0 1 1 0 1.415z"/><path fill="#fff" d="M148.748 25.859a6.5 6.5 0 0 1-6.492-6.493.707.707 0 1 1 1.415 0 5.08 5.08 0 0 0 5.074 5.074 5.08 5.08 0 0 0 5.074-5.074 5.08 5.08 0 0 0-5.074-5.074.707.707 0 1 1 0-1.415 6.5 6.5 0 0 1 6.492 6.492 6.5 6.5 0 0 1-6.492 6.493z"/><path fill="#108D33" d="M23.625 78.02c9.84 0 17.815-7.976 17.815-17.815S33.464 42.39 23.625 42.39 5.81 50.366 5.81 60.205s7.976 17.816 17.815 17.816"/><path fill="#118E34" d="M23.625 76.56c9.84 0 17.815-7.977 17.815-17.816 0-9.84-7.976-17.815-17.815-17.815S5.81 48.905 5.81 58.744s7.976 17.815 17.815 17.815"/><path fill="#128E35" d="M23.625 75.097c9.84 0 17.815-7.976 17.815-17.816s-7.976-17.815-17.815-17.815S5.81 47.442 5.81 57.281s7.976 17.816 17.815 17.816"/><path fill="#138F36" d="M23.625 73.634c9.84 0 17.815-7.976 17.815-17.815s-7.976-17.815-17.815-17.815S5.81 45.98 5.81 55.819s7.976 17.815 17.815 17.815"/><path fill="#148F36" d="M23.625 72.173c9.84 0 17.815-7.976 17.815-17.815s-7.976-17.815-17.815-17.815S5.81 44.518 5.81 54.358s7.976 17.815 17.815 17.815"/><path fill="#159037" d="M23.625 70.712c9.84 0 17.815-7.976 17.815-17.816s-7.976-17.815-17.815-17.815S5.81 43.057 5.81 52.896s7.976 17.816 17.815 17.816"/><path fill="#169138" d="M23.625 69.253c9.84 0 17.815-7.976 17.815-17.816s-7.976-17.815-17.815-17.815S5.81 41.598 5.81 51.437s7.976 17.816 17.815 17.816"/><path fill="#179139" d="M23.625 67.792c9.84 0 17.815-7.977 17.815-17.816s-7.976-17.815-17.815-17.815S5.81 40.137 5.81 49.976s7.976 17.816 17.815 17.816"/><path fill="#18923A" d="M23.625 66.33c9.84 0 17.815-7.977 17.815-17.816 0-9.84-7.976-17.816-17.815-17.816S5.81 38.676 5.81 48.515s7.976 17.815 17.815 17.815"/><path fill="#19933B" d="M23.625 64.868c9.84 0 17.815-7.976 17.815-17.816s-7.976-17.815-17.815-17.815S5.81 37.213 5.81 47.052s7.976 17.816 17.815 17.816"/><path fill="#1A933C" d="M23.625 63.406c9.84 0 17.815-7.977 17.815-17.816s-7.976-17.815-17.815-17.815S5.81 35.75 5.81 45.59s7.976 17.816 17.815 17.816"/><path fill="#1B943C" d="M23.625 61.948c9.84 0 17.815-7.977 17.815-17.816s-7.976-17.815-17.815-17.815S5.81 34.293 5.81 44.132s7.976 17.816 17.815 17.816"/><path fill="#1C943D" d="M23.625 60.486c9.84 0 17.815-7.976 17.815-17.815s-7.976-17.815-17.815-17.815S5.81 32.832 5.81 42.67s7.976 17.815 17.815 17.815"/><path fill="#1D953E" d="M23.625 59.024c9.84 0 17.815-7.976 17.815-17.815s-7.976-17.816-17.815-17.816S5.81 31.37 5.81 41.21s7.976 17.815 17.815 17.815"/><path fill="#1E963F" d="M23.625 57.563c9.84 0 17.815-7.977 17.815-17.816s-7.976-17.815-17.815-17.815S5.81 29.908 5.81 39.747s7.976 17.816 17.815 17.816"/><path fill="#1F9640" d="M23.625 56.1c9.84 0 17.815-7.976 17.815-17.815S33.464 20.47 23.625 20.47 5.81 28.446 5.81 38.285 13.786 56.1 23.625 56.1"/><path fill="#209741" d="M23.625 54.638c9.84 0 17.815-7.976 17.815-17.815s-7.976-17.816-17.815-17.816S5.81 26.983 5.81 36.822s7.976 17.816 17.815 17.816"/><path fill="#219842" d="M23.625 53.18c9.84 0 17.815-7.977 17.815-17.816S33.464 17.55 23.625 17.55 5.81 25.525 5.81 35.364 13.786 53.18 23.625 53.18"/><path fill="#229842" d="M23.625 51.719c9.84 0 17.815-7.977 17.815-17.816s-7.976-17.815-17.815-17.815S5.81 24.064 5.81 33.903 13.786 51.72 23.625 51.72"/><path fill="#239943" d="M23.625 50.256c9.84 0 17.815-7.976 17.815-17.815s-7.976-17.815-17.815-17.815S5.81 22.602 5.81 32.44s7.976 17.815 17.815 17.815"/><path fill="#249944" d="M23.625 48.795c9.84 0 17.815-7.976 17.815-17.815s-7.976-17.816-17.815-17.816S5.81 21.141 5.81 30.98s7.976 17.815 17.815 17.815"/><path fill="#259A45" d="M23.625 47.333c9.84 0 17.815-7.977 17.815-17.816s-7.976-17.815-17.815-17.815S5.81 19.678 5.81 29.517s7.976 17.816 17.815 17.816"/><path fill="#269B46" d="M23.625 45.871c9.84 0 17.815-7.976 17.815-17.815S33.464 10.24 23.625 10.24 5.81 18.217 5.81 28.056 13.786 45.87 23.625 45.87"/><path fill="#279B47" d="M23.625 44.413c9.84 0 17.815-7.977 17.815-17.816S33.464 8.782 23.625 8.782 5.81 16.758 5.81 26.597s7.976 17.816 17.815 17.816"/><path fill="#289C48" d="M23.625 42.95c9.84 0 17.815-7.976 17.815-17.815S33.464 7.32 23.625 7.32 5.81 15.296 5.81 25.135s7.976 17.816 17.815 17.816"/><path fill="#299C48" d="M23.625 41.49c9.84 0 17.815-7.977 17.815-17.816S33.464 5.86 23.625 5.86 5.81 13.835 5.81 23.674 13.786 41.49 23.625 41.49"/><path fill="#2A9D49" d="M23.625 40.027c9.84 0 17.815-7.976 17.815-17.815S33.464 4.397 23.625 4.397 5.81 12.373 5.81 22.212s7.976 17.815 17.815 17.815"/><path fill="#2B9E4A" d="M23.625 38.566c9.84 0 17.815-7.976 17.815-17.815S33.464 2.935 23.625 2.935 5.81 10.912 5.81 20.751s7.976 17.815 17.815 17.815"/><path fill="#2C9E4B" d="M23.625 37.107c9.84 0 17.815-7.977 17.815-17.816S33.464 1.476 23.625 1.476 5.81 9.452 5.81 19.29s7.976 17.816 17.815 17.816"/><path fill="#2D9F4C" d="M24.797 36.817c9.839 0 17.815-7.976 17.815-17.816S34.636 1.186 24.797 1.186 6.98 9.162 6.98 19.001s7.977 17.816 17.816 17.816"/><path fill="#2EA04D" d="M26.259 36.817c9.839 0 17.815-7.976 17.815-17.816S36.098 1.186 26.26 1.186 8.443 9.162 8.443 19.001 16.42 36.817 26.26 36.817"/><path fill="#2FA04E" d="M27.72 36.817c9.84 0 17.816-7.976 17.816-17.816S37.56 1.186 27.721 1.186 9.905 9.162 9.905 19.001s7.977 17.816 17.816 17.816"/><path fill="#30A14E" d="M29.183 36.817c9.839 0 17.815-7.976 17.815-17.816S39.022 1.186 29.183 1.186 11.367 9.162 11.367 19.001s7.976 17.816 17.816 17.816"/><path fill="#31A14F" d="M30.64 36.817c9.84 0 17.816-7.976 17.816-17.816S40.48 1.186 30.641 1.186 12.825 9.162 12.825 19.001s7.976 17.816 17.816 17.816"/><path fill="#32A250" d="M32.103 36.817c9.84 0 17.816-7.976 17.816-17.816S41.943 1.186 32.104 1.186 14.287 9.162 14.287 19.001s7.976 17.816 17.815 17.816"/><path fill="#33A351" d="M33.564 36.817c9.84 0 17.816-7.976 17.816-17.816S43.404 1.186 33.564 1.186 15.75 9.162 15.75 19.001s7.976 17.816 17.815 17.816"/><path fill="#34A352" d="M35.026 36.817c9.84 0 17.816-7.976 17.816-17.816S44.865 1.186 35.026 1.186 17.211 9.162 17.211 19.001s7.976 17.816 17.815 17.816"/><path fill="#35A453" d="M36.488 36.817c9.84 0 17.816-7.976 17.816-17.816S46.327 1.186 36.488 1.186 18.673 9.162 18.673 19.001s7.976 17.816 17.815 17.816"/><path fill="#36A554" d="M37.95 36.817c9.84 0 17.816-7.976 17.816-17.816S47.789 1.186 37.95 1.186 20.135 9.162 20.135 19.001 28.11 36.817 37.95 36.817"/><path fill="#37A554" d="M39.41 36.817c9.838 0 17.815-7.976 17.815-17.816S49.248 1.186 39.409 1.186 21.594 9.162 21.594 19.001s7.976 17.816 17.815 17.816"/><path fill="#38A655" d="M40.87 36.817c9.84 0 17.816-7.976 17.816-17.816S50.709 1.186 40.87 1.186c-9.84 0-17.815 7.976-17.815 17.815S31.03 36.817 40.87 36.817"/><path fill="#39A656" d="M42.332 36.817c9.84 0 17.815-7.976 17.815-17.816S52.171 1.186 42.332 1.186 24.517 9.162 24.517 19.001s7.976 17.816 17.815 17.816"/><path fill="#3AA757" d="M43.794 36.817c9.84 0 17.815-7.976 17.815-17.816S53.633 1.186 43.794 1.186 25.979 9.162 25.979 19.001s7.976 17.816 17.815 17.816"/><path fill="#3BA858" d="M45.256 36.817c9.839 0 17.815-7.976 17.815-17.816S55.095 1.186 45.256 1.186 27.44 9.162 27.44 19.001s7.977 17.816 17.816 17.816"/><path fill="#3CA859" d="M46.715 36.817c9.839 0 17.815-7.976 17.815-17.816S56.554 1.186 46.715 1.186 28.899 9.162 28.899 19.001s7.977 17.816 17.816 17.816"/><path fill="#3DA95A" d="M48.176 36.817c9.839 0 17.815-7.976 17.815-17.816S58.015 1.186 48.176 1.186 30.36 9.162 30.36 19.001s7.977 17.816 17.816 17.816"/><path fill="#3EA95A" d="M49.638 36.817c9.839 0 17.815-7.976 17.815-17.816S59.477 1.186 49.638 1.186 31.822 9.162 31.822 19.001s7.976 17.816 17.816 17.816"/><path fill="#3FAA5B" d="M51.1 36.817c9.839 0 17.815-7.976 17.815-17.816S60.939 1.186 51.1 1.186 33.284 9.162 33.284 19.001 41.26 36.817 51.1 36.817"/><path fill="#40AB5C" d="M52.562 36.817c9.839 0 17.815-7.976 17.815-17.816S62.4 1.186 52.562 1.186 34.746 9.162 34.746 19.001s7.976 17.816 17.816 17.816"/><path fill="#41AB5D" d="M54.023 36.817c9.84 0 17.816-7.976 17.816-17.816S63.863 1.186 54.023 1.186 36.208 9.162 36.208 19.001s7.976 17.816 17.815 17.816"/><path fill="#42AC5E" d="M55.481 36.817c9.84 0 17.816-7.976 17.816-17.816S65.32 1.186 55.48 1.186 37.666 9.162 37.666 19.001s7.976 17.816 17.815 17.816"/><path fill="#43AD5F" d="M56.943 36.817c9.84 0 17.816-7.976 17.816-17.816S66.782 1.186 56.943 1.186 39.128 9.162 39.128 19.001s7.976 17.816 17.815 17.816"/><path fill="#44AD60" d="M58.405 36.817c9.84 0 17.816-7.976 17.816-17.816S68.244 1.186 58.405 1.186 40.59 9.162 40.59 19.001s7.976 17.816 17.815 17.816"/><path fill="#44AE60" d="M59.135 37.547c9.839 0 17.815-7.976 17.815-17.815S68.974 1.916 59.135 1.916 41.319 9.892 41.319 19.732s7.977 17.815 17.816 17.815"/><path fill="#45AE61" d="M59.135 39.008c9.839 0 17.815-7.977 17.815-17.816S68.974 3.377 59.135 3.377s-17.816 7.976-17.816 17.815 7.977 17.816 17.816 17.816"/><path fill="#46AF62" d="M59.135 40.47c9.839 0 17.815-7.976 17.815-17.815S68.974 4.839 59.135 4.839s-17.816 7.977-17.816 17.816S49.296 40.47 59.135 40.47"/><path fill="#47B063" d="M59.135 41.932c9.839 0 17.815-7.976 17.815-17.815S68.974 6.3 59.135 6.3s-17.816 7.977-17.816 17.816 7.977 17.815 17.816 17.815"/><path fill="#48B064" d="M59.135 43.393c9.839 0 17.815-7.976 17.815-17.815S68.974 7.762 59.135 7.762s-17.816 7.976-17.816 17.816 7.977 17.815 17.816 17.815"/><path fill="#49B165" d="M59.135 44.855c9.839 0 17.815-7.976 17.815-17.815S68.974 9.224 59.135 9.224 41.319 17.201 41.319 27.04s7.977 17.815 17.816 17.815"/><path fill="#4AB266" d="M59.135 46.313c9.839 0 17.815-7.976 17.815-17.815s-7.976-17.816-17.815-17.816-17.816 7.977-17.816 17.816 7.977 17.815 17.816 17.815"/><path fill="#4BB266" d="M59.135 47.776c9.839 0 17.815-7.976 17.815-17.815s-7.976-17.816-17.815-17.816-17.816 7.976-17.816 17.816 7.977 17.815 17.816 17.815"/><path fill="#4CB367" d="M59.135 49.237c9.839 0 17.815-7.977 17.815-17.816s-7.976-17.815-17.815-17.815-17.816 7.976-17.816 17.815 7.977 17.816 17.816 17.816"/><path fill="#4DB368" d="M59.135 50.698c9.839 0 17.815-7.976 17.815-17.815s-7.976-17.816-17.815-17.816-17.816 7.977-17.816 17.816 7.977 17.815 17.816 17.815"/><path fill="#4EB469" d="M59.135 52.161c9.839 0 17.815-7.976 17.815-17.815S68.974 16.53 59.135 16.53s-17.816 7.976-17.816 17.816S49.296 52.16 59.135 52.16"/><path fill="#4FB56A" d="M59.135 53.622c9.839 0 17.815-7.977 17.815-17.816s-7.976-17.815-17.815-17.815-17.816 7.976-17.816 17.815 7.977 17.816 17.816 17.816"/><path fill="#50B56B" d="M59.135 55.081c9.839 0 17.815-7.976 17.815-17.815S68.974 19.45 59.135 19.45s-17.816 7.977-17.816 17.816S49.296 55.08 59.135 55.08"/><path fill="#51B66C" d="M59.135 56.542c9.839 0 17.815-7.976 17.815-17.815S68.974 20.91 59.135 20.91s-17.816 7.977-17.816 17.816 7.977 17.815 17.816 17.815"/><path fill="#52B66C" d="M59.135 58.005c9.839 0 17.815-7.976 17.815-17.816s-7.976-17.815-17.815-17.815-17.816 7.976-17.816 17.815 7.977 17.816 17.816 17.816"/><path fill="#53B76D" d="M59.135 59.467c9.839 0 17.815-7.977 17.815-17.816s-7.976-17.815-17.815-17.815-17.816 7.976-17.816 17.815 7.977 17.816 17.816 17.816"/><path fill="#54B86E" d="M59.135 60.927c9.839 0 17.815-7.976 17.815-17.815s-7.976-17.816-17.815-17.816-17.816 7.977-17.816 17.816 7.977 17.815 17.816 17.815"/><path fill="#55B86F" d="M59.135 62.386c9.839 0 17.815-7.976 17.815-17.815s-7.976-17.815-17.815-17.815-17.816 7.976-17.816 17.815 7.977 17.815 17.816 17.815"/><path fill="#56B970" d="M59.135 63.849c9.839 0 17.815-7.976 17.815-17.816s-7.976-17.815-17.815-17.815-17.816 7.976-17.816 17.815S49.296 63.85 59.135 63.85"/><path fill="#57BA71" d="M59.135 65.31c9.839 0 17.815-7.976 17.815-17.815s-7.976-17.816-17.815-17.816-17.816 7.977-17.816 17.816S49.296 65.31 59.135 65.31"/><path fill="#58BA72" d="M59.135 66.772c9.839 0 17.815-7.976 17.815-17.815S68.974 31.14 59.135 31.14s-17.816 7.977-17.816 17.816 7.977 17.815 17.816 17.815"/><path fill="#59BB72" d="M59.135 68.235c9.839 0 17.815-7.977 17.815-17.816s-7.976-17.815-17.815-17.815-17.816 7.976-17.816 17.815 7.977 17.816 17.816 17.816"/><path fill="#5ABB73" d="M59.135 69.695c9.839 0 17.815-7.976 17.815-17.816s-7.976-17.815-17.815-17.815-17.816 7.976-17.816 17.815 7.977 17.816 17.816 17.816"/><path fill="#5BBC74" d="M59.135 71.154c9.839 0 17.815-7.976 17.815-17.815s-7.976-17.816-17.815-17.816S41.319 43.5 41.319 53.34s7.977 17.815 17.816 17.815"/><path fill="#5CBD75" d="M58.73 72.21c9.839 0 17.815-7.975 17.815-17.814S68.569 36.58 58.73 36.58s-17.816 7.976-17.816 17.816S48.89 72.21 58.73 72.21"/><path fill="#5DBD76" d="M57.268 72.21c9.839 0 17.815-7.975 17.815-17.814S67.107 36.58 57.268 36.58s-17.816 7.976-17.816 17.816S47.428 72.21 57.268 72.21"/><path fill="#5EBE77" d="M55.806 72.21c9.839 0 17.815-7.975 17.815-17.814S65.645 36.58 55.806 36.58 37.99 44.556 37.99 54.396 45.967 72.21 55.806 72.21"/><path fill="#5FBF78" d="M54.345 72.21c9.839 0 17.815-7.975 17.815-17.814S64.184 36.58 54.345 36.58s-17.816 7.976-17.816 17.816S44.505 72.21 54.345 72.21"/><path fill="#60BF78" d="M52.886 72.21c9.839 0 17.815-7.975 17.815-17.814S62.725 36.58 52.886 36.58 35.07 44.556 35.07 54.396 43.047 72.21 52.886 72.21"/><path fill="#61C079" d="M51.424 72.21c9.839 0 17.815-7.975 17.815-17.814S61.263 36.58 51.424 36.58s-17.816 7.976-17.816 17.816S41.585 72.21 51.424 72.21"/><path fill="#62C07A" d="M49.962 72.21c9.84 0 17.815-7.975 17.815-17.814S59.801 36.58 49.962 36.58s-17.815 7.976-17.815 17.816S40.123 72.21 49.962 72.21"/><path fill="#63C17B" d="M48.5 72.21c9.84 0 17.815-7.975 17.815-17.814S58.34 36.58 48.5 36.58s-17.815 7.976-17.815 17.816S38.66 72.21 48.5 72.21"/><path fill="#64C27C" d="M47.038 72.21c9.84 0 17.816-7.975 17.816-17.814S56.876 36.58 47.037 36.58c-9.84 0-17.815 7.976-17.815 17.816S37.199 72.21 47.038 72.21"/><path fill="#65C27D" d="M45.58 72.21c9.84 0 17.816-7.975 17.816-17.814S55.418 36.58 45.58 36.58c-9.84 0-17.815 7.976-17.815 17.816S35.74 72.21 45.58 72.21"/><path fill="#66C37E" d="M44.118 72.21c9.84 0 17.816-7.975 17.816-17.814S53.957 36.58 44.118 36.58s-17.815 7.976-17.815 17.816S34.279 72.21 44.118 72.21"/><path fill="#67C37E" d="M42.656 72.21c9.84 0 17.816-7.975 17.816-17.814S52.495 36.58 42.656 36.58s-17.815 7.976-17.815 17.816S32.817 72.21 42.656 72.21"/><path fill="#68C47F" d="M41.194 72.21c9.84 0 17.816-7.975 17.816-17.814S51.033 36.58 41.194 36.58 23.38 44.556 23.38 54.396 31.355 72.21 41.194 72.21"/><path fill="#69C580" d="M39.732 72.21c9.84 0 17.816-7.975 17.816-17.814S49.572 36.58 39.732 36.58s-17.815 7.976-17.815 17.816S29.893 72.21 39.732 72.21"/><path fill="#6AC581" d="M38.27 72.21c9.84 0 17.816-7.975 17.816-17.814S48.11 36.58 38.27 36.58s-17.816 7.976-17.816 17.816S28.431 72.21 38.271 72.21"/><path fill="#6BC682" d="M36.813 72.21c9.839 0 17.815-7.975 17.815-17.814S46.652 36.58 36.813 36.58s-17.816 7.976-17.816 17.816S26.973 72.21 36.813 72.21"/><path fill="#6CC783" d="M35.35 72.21c9.84 0 17.816-7.975 17.816-17.814S45.19 36.58 35.351 36.58s-17.816 7.976-17.816 17.816S25.511 72.21 35.351 72.21"/><path fill="#6DC784" d="M33.889 72.21c9.839 0 17.815-7.975 17.815-17.814S43.728 36.58 33.89 36.58s-17.816 7.976-17.816 17.816S24.05 72.21 33.89 72.21"/><path fill="#6EC884" d="M32.427 72.21c9.839 0 17.815-7.975 17.815-17.814S42.266 36.58 32.427 36.58 14.61 44.556 14.61 54.396 22.588 72.21 32.427 72.21"/><path fill="#6FC885" d="M30.965 72.21c9.839 0 17.815-7.975 17.815-17.814S40.804 36.58 30.965 36.58s-17.816 7.976-17.816 17.816S21.126 72.21 30.965 72.21"/><path fill="#70C986" d="M29.504 72.21c9.84 0 17.815-7.975 17.815-17.814S39.343 36.58 29.504 36.58s-17.816 7.976-17.816 17.816S19.665 72.21 29.504 72.21"/><path fill="#71CA87" d="M28.045 72.21c9.84 0 17.815-7.975 17.815-17.814S37.884 36.58 28.045 36.58 10.23 44.556 10.23 54.396 18.206 72.21 28.045 72.21"/><path fill="#72CA88" d="M26.583 72.21c9.84 0 17.815-7.975 17.815-17.814S36.422 36.58 26.583 36.58 8.768 44.556 8.768 54.396 16.744 72.21 26.583 72.21"/><path fill="#73CB89" d="M25.121 72.21c9.84 0 17.816-7.975 17.816-17.814S34.96 36.58 25.12 36.58c-9.84 0-17.815 7.976-17.815 17.816S15.282 72.21 25.12 72.21"/><path fill="#74CC8A" d="M23.66 72.21c9.84 0 17.816-7.975 17.816-17.814S33.499 36.58 23.66 36.58 5.845 44.556 5.845 54.396 13.82 72.21 23.66 72.21"/><path fill="#75CC8A" d="M22.197 72.21c9.84 0 17.816-7.975 17.816-17.814S32.036 36.58 22.197 36.58 4.382 44.556 4.382 54.396 12.358 72.21 22.197 72.21"/><path fill="#76CD8B" d="M20.74 72.21c9.838 0 17.815-7.975 17.815-17.814S30.578 36.58 20.739 36.58 2.924 44.556 2.924 54.396 10.9 72.21 20.739 72.21"/><path fill="#77CD8C" d="M19.277 72.21c9.84 0 17.816-7.975 17.816-17.814S29.116 36.58 19.277 36.58 1.462 44.556 1.462 54.396 9.438 72.21 19.277 72.21"/><path fill="#78CE8D" d="M17.815 72.21c9.84 0 17.816-7.975 17.816-17.814S27.655 36.58 17.815 36.58 0 44.556 0 54.396 7.976 72.21 17.815 72.21"/><path fill="#fff" d="M24.068.98h9.637v7.044a4.82 4.82 0 0 1-4.818 4.818 4.82 4.82 0 0 1-4.819-4.818zM49.183.98h9.637v7.044A4.82 4.82 0 0 1 54 12.842a4.82 4.82 0 0 1-4.818-4.818z"/><path stroke="#fff" stroke-linecap="round" stroke-linejoin="round" stroke-width="2.819" d="M23.753 25.555h35.381M27.665 44.571l10.254 10.295 17.298-16.597"/></svg>