<svg xmlns="http://www.w3.org/2000/svg" width="111" height="111" fill="none" viewBox="0 0 111 111"><path fill="url(#a)" stroke="url(#b)" d="M55.5 9.75q9.49 0 17.84 3.604 8.365 3.608 14.528 9.778 6.166 6.168 9.783 14.53 3.612 8.345 3.599 17.837-.014 9.495-3.603 17.84-3.595 8.362-9.778 14.53-6.183 6.169-14.53 9.782-8.332 3.608-17.839 3.599-9.498 0-17.839-3.603-8.355-3.61-14.53-9.779-6.173-6.168-9.777-14.528Q9.756 64.994 9.75 55.5q-.003-9.493 3.604-17.839 3.612-8.36 9.778-14.53 6.163-6.169 14.528-9.777Q46.01 9.75 55.5 9.75Zm17.497 70.642-.137-.144L54.25 60.51h.44c4.274 0 7.85-1.31 10.692-3.95 2.7-2.508 4.403-5.434 5.096-8.769h4.715v-6.435h-4.837a11.8 11.8 0 0 0-1.177-3.036 19 19 0 0 0-1.534-2.323h7.548v-6.434H35.807v7.59h18.537c1.919 0 3.441.478 4.607 1.396 1.004.79 1.73 1.725 2.19 2.807H35.808v6.435H61.27c-.47 1.174-1.225 2.21-2.279 3.11-1.195 1.021-2.84 1.558-4.993 1.555H41.935v8.096l.131.143L61.03 81.276l.149.162h11.82z"/><defs><linearGradient id="a" x1="91.667" x2="39.737" y1="-2.836" y2="109.747" gradientUnits="userSpaceOnUse"><stop stop-color="#008745" stop-opacity="0"/><stop offset="1" stop-color="#008745"/></linearGradient><linearGradient id="b" x1="18.167" x2="69.91" y1="95.361" y2=".62" gradientUnits="userSpaceOnUse"><stop stop-color="#00FF82"/><stop offset="1" stop-color="#008745" stop-opacity="0"/></linearGradient></defs></svg>