<svg xmlns="http://www.w3.org/2000/svg" width="111" height="111" fill="none" viewBox="0 0 111 111"><path fill="url(#a)" stroke="url(#b)" d="M83.25 63.929A11.394 11.394 0 0 1 94.643 75.32v2.835c0 6.871-4.04 12.96-10.981 17.353-6.944 4.394-16.758 7.062-28.162 7.062-11.41 0-21.222-2.53-28.164-6.854-6.936-4.32-10.979-10.407-10.979-17.56V75.32a11.39 11.39 0 0 1 9.803-11.28 38.2 38.2 0 0 0 17.863 12.002 14.37 14.37 0 0 0 8.1 5.327A14.375 14.375 0 0 0 69.455 63.93zM56 8.436a31.215 31.215 0 0 1 30.578 28.28c.124 1.314-.955 2.428-2.337 2.428-1.352 0-2.481-1.11-2.647-2.528A26.268 26.268 0 1 0 45.381 63.89l.156.066.006.003q1.215.496 2.487.876l.434.13.172-.417a7.43 7.43 0 0 1 14.292 2.845 7.428 7.428 0 0 1-14.237 2.98l-.021-.053-.1-.232-.246-.058q-.698-.165-1.388-.362l-.031-.01-.01-.003-.01-.003-.83-.25a31.2 31.2 0 0 1-11.203-6.348A31.214 31.214 0 0 1 56 8.436Zm-2.97 12.053a19.32 19.32 0 0 1 14.713 4.204l.39.327a19.27 19.27 0 0 1 6.688 14.624c0 3.5-.95 6.934-2.749 9.936a19.3 19.3 0 0 1-7.166 6.94 14.33 14.33 0 0 0-9.406-3.501 14.32 14.32 0 0 0-9.405 3.502 19.32 19.32 0 0 1-9.355-12.294 19.32 19.32 0 0 1 16.29-23.738Z"/><defs><linearGradient id="a" x1="86.5" x2="27" y1="-4.5" y2="103" gradientUnits="userSpaceOnUse"><stop stop-color="#008745" stop-opacity="0"/><stop offset="1" stop-color="#008745"/></linearGradient><linearGradient id="b" x1="23.5" x2="81.5" y1="96.501" y2="8" gradientUnits="userSpaceOnUse"><stop stop-color="#00FF82"/><stop offset="1" stop-color="#008745" stop-opacity="0"/></linearGradient></defs></svg>