<svg xmlns="http://www.w3.org/2000/svg" width="390" height="752" fill="none" viewBox="0 0 390 752"><mask id="c" fill="#fff"><path d="M318.107 22.723C348.497 6.863 390-16.642 390 17.637v684c0 27.614-22.386 50-50 50H50c-27.614 0-50-22.386-50-50v-684c0-34.279 41.503-10.775 71.892 5.085 8.706 4.544 18.607 7.113 29.108 7.113h188c10.5 0 20.401-2.568 29.107-7.112"/></mask><path fill="url(#a)" d="M318.107 22.723C348.497 6.863 390-16.642 390 17.637v684c0 27.614-22.386 50-50 50H50c-27.614 0-50-22.386-50-50v-684c0-34.279 41.503-10.775 71.892 5.085 8.706 4.544 18.607 7.113 29.108 7.113h188c10.5 0 20.401-2.568 29.107-7.112"/><path fill="url(#b)" d="M390 701.637h1zm-50 50v1zm-340-50h-1zm390-684h-1v684h2v-684zm0 684h-1c0 27.062-21.938 49-49 49v2c28.166 0 51-22.833 51-51zm-50 50v-1H50v2h290zm-290 0v-1c-27.062 0-49-21.938-49-49h-2c0 28.167 22.834 51 51 51zm-50-50h1v-684h-2v684zM71.892 22.722l-.463.887c8.846 4.617 18.905 7.226 29.571 7.226v-2c-10.336 0-20.078-2.528-28.645-7zM101 29.835v1h188v-2H101zm188 0v1c10.665 0 20.724-2.61 29.57-7.225l-.463-.887-.463-.886c-8.566 4.47-18.308 6.998-28.644 6.998zM0 17.637h1C1 9.253 3.526 4.741 7.437 2.62c4.018-2.18 9.835-2.045 16.868-.272 14.03 3.537 31.868 13.3 47.124 21.262l.463-.887.463-.886C57.22 13.938 39.114 4.018 24.795.408c-7.14-1.8-13.6-2.104-18.312.453C1.662 3.477-1 8.881-1 17.637zm390 0h1c0-8.755-2.662-14.16-7.483-16.776-4.713-2.558-11.171-2.253-18.312-.453-14.319 3.61-32.427 13.53-47.561 21.429l.463.886.463.887c15.256-7.962 33.095-17.725 47.124-21.263 7.034-1.773 12.851-1.909 16.869.272C386.474 4.74 389 9.253 389 17.637z" mask="url(#c)"/><defs><linearGradient id="a" x1="195" x2="195" y1="-32.362" y2="388.721" gradientUnits="userSpaceOnUse"><stop stop-color="#0A110E"/><stop offset="1" stop-color="#0A110E"/></linearGradient><linearGradient id="b" x1="45.07" x2="154.469" y1="-19.862" y2="565.618" gradientUnits="userSpaceOnUse"><stop stop-color="#008745"/><stop offset=".678" stop-color="#0A110E"/><stop offset="1" stop-color="#0A110E"/></linearGradient></defs></svg>