<svg xmlns="http://www.w3.org/2000/svg" width="1440" height="581" fill="none" viewBox="0 0 1440 581"><mask id="c" fill="#fff"><path d="M1390 0c27.61 0 50 22.386 50 50v481c0 27.614-22.39 50-50 50H50c-27.614 0-50-22.386-50-50V50C0 22.386 22.386 0 50 0h344.392c35.569 0 64.285 34.919 94.744 53.289 9.511 5.736 20.657 9.036 32.574 9.036h396.58c11.917 0 23.063-3.3 32.574-9.037C981.323 34.918 1010.04 0 1045.61 0z"/></mask><path fill="url(#a)" d="M1390 0c27.61 0 50 22.386 50 50v481c0 27.614-22.39 50-50 50H50c-27.614 0-50-22.386-50-50V50C0 22.386 22.386 0 50 0h344.392c35.569 0 64.285 34.919 94.744 53.289 9.511 5.736 20.657 9.036 32.574 9.036h396.58c11.917 0 23.063-3.3 32.574-9.037C981.323 34.918 1010.04 0 1045.61 0z"/><path fill="url(#b)" d="M1390 581v1zM50 0v-1zm439.136 53.289-.517.856zM1390 0v1c27.06 0 49 21.938 49 49h2c0-28.166-22.83-51-51-51zm50 50h-1v481h2V50zm0 481h-1c0 27.062-21.94 49-49 49v2c28.17 0 51-22.833 51-51zm-50 50v-1H50v2h1340zM50 581v-1c-27.062 0-49-21.938-49-49h-2c0 28.167 22.834 51 51 51zM0 531h1V50h-2v481zM0 50h1C1 22.938 22.938 1 50 1v-2C21.834-1-1 21.834-1 50zM50 0v1h344.392v-2H50zm439.136 53.289-.517.856c9.663 5.828 20.987 9.18 33.091 9.18v-2c-11.73 0-22.698-3.248-32.058-8.893zm32.574 9.036v1h396.58v-2H521.71zm396.58 0v1c12.104 0 23.428-3.352 33.091-9.18l-.517-.857-.516-.856c-9.36 5.645-20.328 8.893-32.058 8.893zM1045.61 0v1H1390v-2h-344.39zm-94.746 53.289.517.856c7.669-4.625 15.214-10.284 22.749-16.143 7.549-5.872 15.077-11.936 22.771-17.433C1012.3 9.57 1028.15 1 1045.61 1v-2c-18.11 0-34.4 8.89-49.872 19.942C988 24.47 980.414 30.58 972.902 36.423c-7.528 5.854-14.994 11.45-22.554 16.01zM394.392 0v1c17.457 0 33.311 8.57 48.707 19.57 7.694 5.496 15.222 11.56 22.771 17.432 7.535 5.86 15.08 11.518 22.749 16.143l.517-.857.516-.856c-7.56-4.56-15.026-10.155-22.554-16.009-7.512-5.843-15.098-11.952-22.836-17.481C428.792 7.89 412.504-1 394.392-1z" mask="url(#c)"/><defs><linearGradient id="a" x1="720" x2="720" y1="0" y2="581" gradientUnits="userSpaceOnUse"><stop stop-color="#020503"/><stop offset="1" stop-color="#020503"/></linearGradient><linearGradient id="b" x1="481.173" x2="551.285" y1="12.5" y2="610.198" gradientUnits="userSpaceOnUse"><stop stop-color="#008745"/><stop offset=".678" stop-color="#020503"/><stop offset="1" stop-color="#020503"/></linearGradient></defs></svg>